<svg width="27" height="27" viewBox="0 0 27 27" fill="none" xmlns="http://www.w3.org/2000/svg">
<path d="M17.2737 3.83154V8.21049M8.51579 3.83154V8.21049M4.13684 12.5894H21.6526M7.42105 15.8736H7.43528M10.7162 15.8736H10.7217M14.0004 15.8736H14.0059M17.2901 15.8736H17.2956M14.0059 19.1579H14.0114M7.43201 19.1579H7.43748M10.7162 19.1579H10.7217M4.13684 8.21049C4.13684 7.62981 4.36752 7.0729 4.77812 6.6623C5.18873 6.25169 5.74563 6.02102 6.32631 6.02102H19.4632C20.0438 6.02102 20.6007 6.25169 21.0113 6.6623C21.422 7.0729 21.6526 7.62981 21.6526 8.21049V21.3473C21.6526 21.928 21.422 22.4849 21.0113 22.8955C20.6007 23.3061 20.0438 23.5368 19.4632 23.5368H6.32631C5.74563 23.5368 5.18873 23.3061 4.77812 22.8955C4.36752 22.4849 4.13684 21.928 4.13684 21.3473V8.21049Z" stroke="#333333" stroke-width="1.64211" stroke-linecap="round" stroke-linejoin="round"/>
</svg>
