<svg width="27" height="27" viewBox="0 0 27 27" fill="none" xmlns="http://www.w3.org/2000/svg">
<path d="M4.37891 8.20683C4.37891 7.62614 4.60958 7.06924 5.02019 6.65864C5.43079 6.24803 5.9877 6.01735 6.56838 6.01735H19.7052C20.2859 6.01735 20.8428 6.24803 21.2534 6.65864C21.664 7.06924 21.8947 7.62614 21.8947 8.20683V21.3437C21.8947 21.9244 21.664 22.4813 21.2534 22.8919C20.8428 23.3025 20.2859 23.5331 19.7052 23.5331H6.56838C5.9877 23.5331 5.43079 23.3025 5.02019 22.8919C4.60958 22.4813 4.37891 21.9244 4.37891 21.3437V8.20683Z" fill="#014122"/>
<path d="M17.5157 3.82788V8.20683V3.82788Z" fill="#014122"/>
<path d="M8.75785 3.82788V8.20683V3.82788Z" fill="#014122"/>
<path d="M4.37891 12.5858H21.8947H4.37891Z" fill="#014122"/>
<path d="M7.66312 15.87H7.67735H7.66312Z" fill="#014122"/>
<path d="M10.9583 15.87H10.9638H10.9583Z" fill="#014122"/>
<path d="M14.2425 15.87H14.248H14.2425Z" fill="#014122"/>
<path d="M17.5322 15.87H17.5377H17.5322Z" fill="#014122"/>
<path d="M14.248 19.1542H14.2534H14.248Z" fill="#014122"/>
<path d="M7.67407 19.1542H7.67955H7.67407Z" fill="#014122"/>
<path d="M10.9583 19.1542H10.9638H10.9583Z" fill="#014122"/>
<path d="M17.5157 3.82788V8.20683M8.75785 3.82788V8.20683M4.37891 12.5858H21.8947M7.66312 15.87H7.67735M10.9583 15.87H10.9638M14.2425 15.87H14.248M17.5322 15.87H17.5377M14.248 19.1542H14.2534M7.67407 19.1542H7.67955M10.9583 19.1542H10.9638M4.37891 8.20683C4.37891 7.62614 4.60958 7.06924 5.02019 6.65864C5.43079 6.24803 5.9877 6.01735 6.56838 6.01735H19.7052C20.2859 6.01735 20.8428 6.24803 21.2534 6.65864C21.664 7.06924 21.8947 7.62614 21.8947 8.20683V21.3437C21.8947 21.9244 21.664 22.4813 21.2534 22.8919C20.8428 23.3025 20.2859 23.5331 19.7052 23.5331H6.56838C5.9877 23.5331 5.43079 23.3025 5.02019 22.8919C4.60958 22.4813 4.37891 21.9244 4.37891 21.3437V8.20683Z" stroke="#EDEDED" stroke-width="1.4" stroke-linecap="round" stroke-linejoin="round"/>
</svg>
