<svg width="27" height="27" viewBox="0 0 27 27" fill="none" xmlns="http://www.w3.org/2000/svg">
<path fill-rule="evenodd" clip-rule="evenodd" d="M17.0914 11.5424C17.7115 10.0103 16.2054 8.4782 14.6993 9.10907L11.8965 10.2831C11.1865 10.5805 10.6226 11.1541 10.3303 11.8764L9.17614 14.7277C8.55599 16.2598 10.0621 17.7919 11.5682 17.161L14.371 15.987C15.081 15.6896 15.6449 15.116 15.9372 14.3937L17.0914 11.5424ZM15.2973 10.5865C15.5125 10.4963 15.7277 10.7152 15.6391 10.9341L14.4849 13.7854C14.352 14.1137 14.0958 14.3744 13.773 14.5096L10.9702 15.6836C10.755 15.7738 10.5398 15.5549 10.6284 15.336L11.7826 12.4847C11.9155 12.1564 12.1717 11.8957 12.4945 11.7605L15.2973 10.5865Z" fill="#333333"/>
<path fill-rule="evenodd" clip-rule="evenodd" d="M16.3449 2.26577C15.5024 2.1892 14.473 2.1892 13.1706 2.18921H13.0969C11.7945 2.1892 10.7651 2.1892 9.92265 2.26577C9.0573 2.34443 8.33351 2.50744 7.64944 2.86443C7.47224 2.9569 7.29966 3.05826 7.13234 3.16813C6.4864 3.59229 5.98573 4.14843 5.48609 4.87147C4.99968 5.57536 4.48497 6.48228 3.8338 7.62964L3.79692 7.69461C3.14574 8.84196 2.63102 9.74887 2.27499 10.5293C1.90928 11.331 1.68616 12.0502 1.64803 12.8313C1.63816 13.0337 1.63816 13.2364 1.64803 13.4387C1.68616 14.2199 1.90928 14.939 2.27499 15.7407C2.63102 16.5212 3.14573 17.4281 3.7969 18.5754L3.83378 18.6404C4.48495 19.7878 4.99968 20.6947 5.48609 21.3986C5.98573 22.1217 6.4864 22.6778 7.13234 23.102C7.29966 23.2118 7.47224 23.3132 7.64944 23.4057C8.3335 23.7626 9.05729 23.9257 9.92265 24.0043C10.7651 24.0809 11.7945 24.0809 13.0968 24.0809H13.1706C14.4729 24.0809 15.5024 24.0809 16.3448 24.0043C17.2102 23.9257 17.934 23.7626 18.6181 23.4057C18.7953 23.3132 18.9678 23.2118 19.1352 23.102C19.7811 22.6778 20.2818 22.1217 20.7814 21.3986C21.2678 20.6947 21.7825 19.7878 22.4337 18.6405L22.4706 18.5755C23.1218 17.4281 23.6365 16.5212 23.9925 15.7407C24.3582 14.939 24.5813 14.2199 24.6195 13.4387C24.6293 13.2364 24.6293 13.0337 24.6195 12.8313C24.5813 12.0502 24.3582 11.331 23.9925 10.5293C23.6365 9.74887 23.1218 8.84196 22.4706 7.69459L22.4337 7.62957C21.7825 6.48224 21.2678 5.57535 20.7814 4.87147C20.2818 4.14844 19.7811 3.59229 19.1352 3.16813C18.9678 3.05826 18.7953 2.9569 18.6181 2.86443C17.934 2.50744 17.2102 2.34443 16.3449 2.26577ZM8.36633 4.28602C8.80737 4.05585 9.31293 3.92529 10.0624 3.85717C10.8269 3.78768 11.7864 3.78694 13.1338 3.78694C14.4811 3.78694 15.4406 3.78768 16.2051 3.85717C16.9546 3.92529 17.4601 4.05586 17.9012 4.28602C18.0321 4.35437 18.1597 4.42928 18.2834 4.5105C18.6998 4.78397 19.0638 5.16407 19.4965 5.79032C19.9379 6.42907 20.4183 7.27399 21.092 8.46099C21.7656 9.64799 22.2448 10.4936 22.5678 11.2019C22.8846 11.8963 23.0262 12.4069 23.0508 12.9106C23.0581 13.0601 23.0581 13.21 23.0508 13.3595C23.0262 13.8632 22.8846 14.3738 22.5678 15.0682C22.2448 15.7764 21.7656 16.6221 21.092 17.8091C20.4183 18.9961 19.9379 19.841 19.4965 20.4798C19.0638 21.106 18.6998 21.4861 18.2834 21.7596C18.1597 21.8408 18.0321 21.9157 17.9012 21.9841C17.4601 22.2142 16.9546 22.3448 16.2051 22.4129C15.4406 22.4824 14.4811 22.4831 13.1337 22.4831C11.7864 22.4831 10.8269 22.4824 10.0624 22.4129C9.31293 22.3448 8.80737 22.2142 8.36633 21.9841C8.23536 21.9157 8.1078 21.8408 7.98412 21.7596C7.56766 21.4861 7.20373 21.106 6.77098 20.4798C6.32958 19.841 5.84922 18.9961 5.17554 17.8091C4.50186 16.6221 4.02275 15.7764 3.69966 15.0682C3.38291 14.3738 3.24128 13.8632 3.2167 13.3595C3.2094 13.21 3.2094 13.0601 3.2167 12.9106C3.24128 12.4069 3.38291 11.8963 3.69966 11.2019C4.02275 10.4936 4.50186 9.64799 5.17554 8.46099C5.84922 7.27399 6.32958 6.42907 6.77098 5.79032C7.20373 5.16407 7.56766 4.78397 7.98412 4.5105C8.1078 4.42928 8.23536 4.35437 8.36633 4.28602Z" fill="#333333"/>
</svg>
