<svg width="27" height="27" viewBox="0 0 27 27" fill="none" xmlns="http://www.w3.org/2000/svg">
<path d="M15.3008 10.5879C15.516 10.4977 15.7312 10.7166 15.6426 10.9355L14.4883 13.7872C14.3554 14.1156 14.099 14.3763 13.7763 14.5115L10.973 15.6858C10.7578 15.7759 10.5426 15.557 10.6312 15.3381L11.7855 12.4864C11.9184 12.1581 12.1748 11.8973 12.4975 11.7621L15.3008 10.5879Z" fill="#014122"/>
<path fill-rule="evenodd" clip-rule="evenodd" d="M16.3484 2.26603C15.5058 2.18944 14.4763 2.18945 13.1737 2.18945H13.1C11.7974 2.18945 10.7679 2.18944 9.92529 2.26603C9.05982 2.3447 8.33592 2.50773 7.65176 2.86477C7.47454 2.95725 7.30194 3.05863 7.13459 3.16852C6.48856 3.59273 5.98782 4.14895 5.48811 4.87209C5.00163 5.57608 4.48685 6.48312 3.83559 7.63064L3.79871 7.69562C3.14743 8.84314 2.63264 9.75018 2.27656 10.5308C1.91079 11.3326 1.68764 12.0518 1.64951 12.8331C1.63964 13.0354 1.63964 13.2382 1.64951 13.4406C1.68764 14.2218 1.91079 14.9411 2.27656 15.7429C2.63263 16.5234 3.1474 17.4304 3.79865 18.5779L3.83557 18.643C4.48683 19.7905 5.00163 20.6976 5.48811 21.4016C5.98782 22.1247 6.48856 22.6809 7.13459 23.1051C7.30194 23.215 7.47454 23.3164 7.65176 23.4089C8.33592 23.7659 9.05981 23.9289 9.92529 24.0076C10.7678 24.0842 11.7974 24.0842 13.0999 24.0842H13.1737C14.4762 24.0842 15.5058 24.0842 16.3484 24.0076C17.2139 23.9289 17.9378 23.7659 18.6219 23.4089C18.7991 23.3164 18.9717 23.215 19.1391 23.1051C19.7851 22.6809 20.2859 22.1247 20.7856 21.4016C21.272 20.6976 21.7868 19.7905 22.4381 18.643L22.475 18.578C23.1263 17.4305 23.641 16.5235 23.9971 15.7429C24.3629 14.9411 24.586 14.2218 24.6242 13.4406C24.634 13.2382 24.634 13.0354 24.6242 12.8331C24.586 12.0518 24.3629 11.3326 23.9971 10.5308C23.641 9.75017 23.1262 8.84313 22.475 7.69561L22.4381 7.63058C21.7868 6.48309 21.272 5.57607 20.7856 4.87209C20.2859 4.14895 19.7851 3.59273 19.1391 3.16852C18.9717 3.05863 18.7991 2.95725 18.6219 2.86477C17.9378 2.50773 17.2139 2.3447 16.3484 2.26603ZM17.0951 11.544C17.7153 10.0117 16.209 8.47932 14.7027 9.11028L11.8994 10.2845C11.1893 10.582 10.6254 11.1556 10.333 11.878L9.17874 14.7297C8.5585 16.262 10.0648 17.7943 11.5711 17.1634L14.3744 15.9891C15.0845 15.6917 15.6484 15.118 15.9408 14.3957L17.0951 11.544Z" fill="#014122"/>
</svg>
