<svg width="37" height="23" viewBox="0 0 37 23" fill="none" xmlns="http://www.w3.org/2000/svg">
<path d="M14.0491 11.3525C14.0494 9.63546 14.4383 7.94073 15.1864 6.39523C15.9346 4.84973 17.0227 3.49351 18.3693 2.42812C16.6946 1.11144 14.6833 0.292513 12.5652 0.0649591C10.4471 -0.162595 8.3077 0.210406 6.39158 1.14132C4.47546 2.07224 2.85992 3.5235 1.72966 5.32922C0.599391 7.13494 0 9.22224 0 11.3525C0 13.4828 0.599391 15.5701 1.72966 17.3758C2.85992 19.1816 4.47546 20.6328 6.39158 21.5637C8.3077 22.4947 10.4471 22.8677 12.5652 22.6401C14.6833 22.4125 16.6946 21.5936 18.3693 20.2769C17.0227 19.2116 15.9346 17.8553 15.1864 16.3098C14.4383 14.7643 14.0494 13.0696 14.0491 11.3525Z" fill="#EB001B"/>
<path d="M36.7551 11.3532C36.7566 13.482 36.159 15.5682 35.0306 17.3732C33.9022 19.1783 32.2885 20.6293 30.3742 21.5603C28.4599 22.4914 26.3221 22.8648 24.2055 22.638C22.0889 22.4112 20.0789 21.5932 18.4053 20.2776C19.7522 19.2125 20.8405 17.8564 21.5887 16.3108C22.3369 14.7653 22.7256 13.0704 22.7256 11.3532C22.7256 9.63609 22.3369 7.94122 21.5887 6.39566C20.8405 4.85009 19.7522 3.49393 18.4053 2.42882C20.0789 1.11328 22.0889 0.295315 24.2055 0.0684824C26.3221 -0.15835 28.4599 0.215108 30.3742 1.14614C32.2885 2.07718 33.9022 3.5282 35.0306 5.33325C36.159 7.1383 36.7566 9.2245 36.7551 11.3532Z" fill="#F79E1B"/>
</svg>
