<svg width="23" height="23" viewBox="0 0 23 23" fill="none" xmlns="http://www.w3.org/2000/svg">
<path fill-rule="evenodd" clip-rule="evenodd" d="M21.4235 3.60114C22.0864 4.83196 22.0864 6.44319 22.0864 9.66566V12.7714C22.0864 13.0932 22.0864 13.2541 22.0796 13.3901C21.9313 16.354 19.4249 18.7251 16.2921 18.8654C16.1483 18.8719 15.9586 18.8719 15.5792 18.8719L15.4818 18.872C14.2408 18.8795 13.0319 19.246 12.0174 19.9223L11.9529 19.9657L8.77726 22.1117C7.68861 22.8474 6.25806 21.785 6.75492 20.6098C7.10688 19.7774 6.45886 18.8719 5.51118 18.8719H4.77921C2.24543 18.8719 0.191406 16.9286 0.191406 14.5315V9.66566C0.191406 6.44319 0.191406 4.83196 0.854299 3.60114C1.43739 2.51848 2.36781 1.63825 3.51221 1.08661C4.8132 0.459473 6.51631 0.459473 9.92252 0.459473H12.3553C15.7615 0.459473 17.4646 0.459473 18.7656 1.08661C19.91 1.63825 20.8404 2.51848 21.4235 3.60114ZM7.48974 9.66566C7.48974 10.3012 6.94514 10.8164 6.27335 10.8164C5.60156 10.8164 5.05696 10.3012 5.05696 9.66566C5.05696 9.03011 5.60156 8.51489 6.27335 8.51489C6.94514 8.51489 7.48974 9.03011 7.48974 9.66566ZM12.3553 9.66566C12.3553 10.3012 11.8107 10.8164 11.1389 10.8164C10.4671 10.8164 9.92252 10.3012 9.92252 9.66566C9.92252 9.03011 10.4671 8.51489 11.1389 8.51489C11.8107 8.51489 12.3553 9.03011 12.3553 9.66566ZM16.0045 10.8164C16.6763 10.8164 17.2208 10.3012 17.2208 9.66566C17.2208 9.03011 16.6763 8.51489 16.0045 8.51489C15.3327 8.51489 14.7881 9.03011 14.7881 9.66566C14.7881 10.3012 15.3327 10.8164 16.0045 10.8164Z" fill="#014122"/>
</svg>
