<svg width="27" height="27" viewBox="0 0 27 27" fill="none" xmlns="http://www.w3.org/2000/svg">
<path fill-rule="evenodd" clip-rule="evenodd" d="M11.9764 2.46313H14.2973C15.8375 2.46313 17.045 2.46313 18.0155 2.53844C19.0037 2.61513 19.8201 2.77388 20.5591 3.1315C21.7739 3.71941 22.7616 4.65751 23.3805 5.81134C23.757 6.51321 23.9242 7.28865 24.0049 8.22728C24.0842 9.14907 24.0842 10.296 24.0842 11.7588V14.6988C24.0842 14.9724 24.0842 15.1389 24.077 15.284C23.9195 18.4428 21.259 20.9698 17.9334 21.1193C17.7805 21.1262 17.5875 21.1262 17.2675 21.1262H17.2355L17.151 21.1263C16.1773 21.1322 15.2288 21.4209 14.4328 21.9536L14.3777 21.9909L11.4464 23.9797C9.75708 25.1257 7.53727 23.4706 8.30826 21.6399C8.41188 21.3938 8.22109 21.1262 7.94208 21.1262H7.26642C4.4625 21.1262 2.18947 18.9672 2.18947 16.304L2.18947 11.7589C2.18947 10.296 2.18946 9.14908 2.26876 8.22728C2.3495 7.28865 2.51663 6.51321 2.89315 5.81134C3.51212 4.65751 4.49979 3.71941 5.71459 3.1315C6.45354 2.77388 7.26994 2.61513 8.25817 2.53844C9.22867 2.46313 10.4362 2.46313 11.9764 2.46313ZM8.39532 4.13282C7.51125 4.20142 6.94116 4.33327 6.4792 4.55683C5.58131 4.99137 4.85129 5.68475 4.39379 6.53759C4.15841 6.97636 4.0196 7.51784 3.94737 8.35755C3.87434 9.2066 3.87368 10.2883 3.87368 11.7947V16.304C3.87368 18.0837 5.39266 19.5265 7.26642 19.5265H7.94208C9.41261 19.5265 10.4181 20.9372 9.87201 22.234C9.72572 22.5814 10.1469 22.8954 10.4674 22.678L13.3988 20.6892L13.4627 20.646C14.5396 19.9252 15.8229 19.5346 17.1402 19.5266L17.2355 19.5265C17.5967 19.5265 17.7462 19.5263 17.8537 19.5214C20.3118 19.4109 22.2783 17.5431 22.3947 15.2084C22.3998 15.106 22.4 14.9802 22.4 14.6729V11.7947C22.4 10.2883 22.3993 9.2066 22.3263 8.35755C22.2541 7.51784 22.1153 6.97636 21.8799 6.53759C21.4224 5.68475 20.6924 4.99137 19.7945 4.55683C19.3325 4.33327 18.7624 4.20142 17.8784 4.13282C16.9845 4.06345 15.8456 4.06283 14.2596 4.06283H12.014C10.4281 4.06283 9.28923 4.06345 8.39532 4.13282Z" fill="#333333"/>
<path d="M9.76842 11.7947C9.76842 12.3836 9.26572 12.8611 8.64561 12.8611C8.0255 12.8611 7.52281 12.3836 7.52281 11.7947C7.52281 11.2057 8.0255 10.7282 8.64561 10.7282C9.26572 10.7282 9.76842 11.2057 9.76842 11.7947Z" fill="#333333"/>
<path d="M14.2596 11.7947C14.2596 12.3836 13.7569 12.8611 13.1368 12.8611C12.5167 12.8611 12.014 12.3836 12.014 11.7947C12.014 11.2057 12.5167 10.7282 13.1368 10.7282C13.7569 10.7282 14.2596 11.2057 14.2596 11.7947Z" fill="#333333"/>
<path d="M18.7509 11.7947C18.7509 12.3836 18.2482 12.8611 17.6281 12.8611C17.008 12.8611 16.5053 12.3836 16.5053 11.7947C16.5053 11.2057 17.008 10.7282 17.6281 10.7282C18.2482 10.7282 18.7509 11.2057 18.7509 11.7947Z" fill="#333333"/>
</svg>
