<svg width="23" height="23" viewBox="0 0 23 23" fill="none" xmlns="http://www.w3.org/2000/svg">
<path fill-rule="evenodd" clip-rule="evenodd" d="M0.189209 11.2271C0.189209 5.18187 5.08983 0.28125 11.135 0.28125C17.1803 0.28125 22.0809 5.18187 22.0809 11.2271C22.0809 14.3311 20.7879 17.1344 18.7131 19.1255C16.7471 21.0122 14.0758 22.1729 11.135 22.1729C8.19425 22.1729 5.52296 21.0122 3.55697 19.1255C1.48223 17.1344 0.189209 14.3311 0.189209 11.2271ZM17.329 18.3226C16.8901 17.0097 15.6497 16.0636 14.1897 16.0636H8.08039C6.6204 16.0636 5.37999 17.0097 4.94109 18.3226C6.59738 19.7698 8.76323 20.6456 11.135 20.6456C13.5069 20.6456 15.6727 19.7698 17.329 18.3226ZM11.135 3.3359C8.4639 3.3359 6.29851 5.50129 6.29851 8.17243C6.29851 10.8436 8.4639 13.009 11.135 13.009C13.8062 13.009 15.9716 10.8436 15.9716 8.17243C15.9716 5.50129 13.8062 3.3359 11.135 3.3359Z" fill="#014122"/>
</svg>
