<svg width="27" height="27" viewBox="0 0 27 27" fill="none" xmlns="http://www.w3.org/2000/svg">
<path d="M17.5158 10.2174H16.6947C16.6947 12.1823 15.1018 13.7753 13.1368 13.7753V14.5963V15.4174C16.0087 15.4174 18.3368 13.0892 18.3368 10.2174H17.5158ZM13.1368 14.5963V13.7753C11.1719 13.7753 9.57895 12.1823 9.57895 10.2174H8.75789H7.93684C7.93684 13.0892 10.265 15.4174 13.1368 15.4174V14.5963ZM8.75789 10.2174H9.57895C9.57895 8.25239 11.1719 6.65946 13.1368 6.65946V5.83841V5.01736C10.265 5.01736 7.93684 7.34548 7.93684 10.2174H8.75789ZM13.1368 5.83841V6.65946C15.1018 6.65946 16.6947 8.25239 16.6947 10.2174H17.5158H18.3368C18.3368 7.34548 16.0087 5.01736 13.1368 5.01736V5.83841ZM9.85263 17.8805V18.7016H16.4211V17.8805V17.0595H9.85263V17.8805ZM2.18947 13.5016H3.01052C3.01052 7.90896 7.54423 3.37525 13.1368 3.37525V2.5542V1.73315C6.63732 1.73315 1.36842 7.00205 1.36842 13.5016H2.18947ZM13.1368 2.5542V3.37525C18.7295 3.37525 23.2632 7.90896 23.2632 13.5016H24.0842H24.9053C24.9053 7.00205 19.6364 1.73315 13.1368 1.73315V2.5542ZM24.0842 13.5016H23.2632C23.2632 16.3734 22.0688 18.9648 20.1474 20.8087L20.7159 21.4011L21.2844 21.9935C23.5151 19.8528 24.9053 16.8388 24.9053 13.5016H24.0842ZM20.7159 21.4011L20.1474 20.8087C18.3272 22.5556 15.8581 23.6279 13.1368 23.6279V24.4489V25.27C16.2986 25.27 19.1707 24.022 21.2844 21.9935L20.7159 21.4011ZM16.4211 17.8805V18.7016C18.1464 18.7016 19.5865 19.9305 19.9106 21.5612L20.7159 21.4011L21.5212 21.2411C21.0474 18.8568 18.945 17.0595 16.4211 17.0595V17.8805ZM13.1368 24.4489V23.6279C10.4156 23.6279 7.94652 22.5556 6.12628 20.8087L5.55777 21.4011L4.98927 21.9935C7.10301 24.022 9.97505 25.27 13.1368 25.27V24.4489ZM5.55777 21.4011L6.12628 20.8087C4.20492 18.9648 3.01052 16.3734 3.01052 13.5016H2.18947H1.36842C1.36842 16.8388 2.75862 19.8528 4.98927 21.9935L5.55777 21.4011ZM9.85263 17.8805V17.0595C7.32866 17.0595 5.22631 18.8568 4.75247 21.2411L5.55777 21.4011L6.36308 21.5612C6.68715 19.9305 8.12728 18.7016 9.85263 18.7016V17.8805Z" fill="#333333"/>
</svg>
