<svg width="27" height="28" viewBox="0 0 27 28" fill="none" xmlns="http://www.w3.org/2000/svg">
<path d="M15.1368 3.95776V8.40221C15.1368 8.69689 15.2539 8.97951 15.4623 9.18788C15.6707 9.39626 15.9533 9.51332 16.248 9.51332H20.6924M15.1368 3.95776H7.35906C6.76969 3.95776 6.20446 4.19189 5.78771 4.60864C5.37097 5.02538 5.13684 5.59062 5.13684 6.17999V21.7355C5.13684 22.3249 5.37097 22.8901 5.78771 23.3069C6.20446 23.7236 6.76969 23.9578 7.35906 23.9578H18.4702C19.0595 23.9578 19.6248 23.7236 20.0415 23.3069C20.4583 22.8901 20.6924 22.3249 20.6924 21.7355V9.51332M15.1368 3.95776L20.6924 9.51332M9.58128 17.2911L11.8035 19.5133L16.248 15.0689" stroke="#333333" stroke-width="1.66667" stroke-linecap="round" stroke-linejoin="round"/>
</svg>
