<svg width="27" height="28" viewBox="0 0 27 28" fill="none" xmlns="http://www.w3.org/2000/svg">
<path d="M15.4023 3.9541V8.39855C15.4023 8.69323 15.5194 8.97585 15.7278 9.18422C15.9362 9.39259 16.2188 9.50966 16.5135 9.50966H20.9579" fill="#014122"/>
<path d="M18.7357 23.9541H7.62457C7.0352 23.9541 6.46996 23.72 6.05322 23.3032C5.63647 22.8865 5.40234 22.3213 5.40234 21.7319V6.17632C5.40234 5.58695 5.63647 5.02172 6.05322 4.60498C6.46996 4.18823 7.0352 3.9541 7.62457 3.9541H15.4023L20.9579 9.50966V21.7319C20.9579 22.3213 20.7238 22.8865 20.307 23.3032C19.8903 23.72 19.325 23.9541 18.7357 23.9541Z" fill="#014122"/>
<path d="M9.84679 17.2874L12.069 19.5097L16.5135 15.0652" fill="#014122"/>
<path d="M15.4023 3.9541V8.39855C15.4023 8.69323 15.5194 8.97585 15.7278 9.18422C15.9362 9.39259 16.2188 9.50966 16.5135 9.50966H20.9579M15.4023 3.9541H7.62457C7.0352 3.9541 6.46997 4.18823 6.05322 4.60498C5.63647 5.02172 5.40234 5.58695 5.40234 6.17632V21.7319C5.40234 22.3213 5.63647 22.8865 6.05322 23.3032C6.46997 23.72 7.0352 23.9541 7.62457 23.9541H18.7357C19.325 23.9541 19.8903 23.72 20.307 23.3032C20.7238 22.8865 20.9579 22.3213 20.9579 21.7319V9.50966M15.4023 3.9541L20.9579 9.50966M9.84679 17.2874L12.069 19.5097L16.5135 15.0652" stroke="#E0DFDF" stroke-width="1.66667" stroke-linecap="round" stroke-linejoin="round"/>
</svg>
