<svg width="34" height="34" viewBox="0 0 34 34" fill="none" xmlns="http://www.w3.org/2000/svg">
<path d="M21.25 7.30469V11.5547M12.75 7.30469V11.5547M8.5 15.8047H25.5M15.9375 20.0547H17V23.2422M8.5 11.5547C8.5 10.9911 8.72388 10.4506 9.1224 10.0521C9.52091 9.65357 10.0614 9.42969 10.625 9.42969H23.375C23.9386 9.42969 24.4791 9.65357 24.8776 10.0521C25.2761 10.4506 25.5 10.9911 25.5 11.5547V24.3047C25.5 24.8683 25.2761 25.4088 24.8776 25.8073C24.4791 26.2058 23.9386 26.4297 23.375 26.4297H10.625C10.0614 26.4297 9.52091 26.2058 9.1224 25.8073C8.72388 25.4088 8.5 24.8683 8.5 24.3047V11.5547Z" stroke="#014122" stroke-width="1.59375" stroke-linecap="round" stroke-linejoin="round"/>
</svg>
