<svg width="34" height="34" viewBox="0 0 34 34" fill="none" xmlns="http://www.w3.org/2000/svg">
<g opacity="0.4">
<path d="M24.3333 11.9798C25.3058 11.9798 26.2384 12.3661 26.9261 13.0538C27.6137 13.7414 28 14.674 28 15.6465C28 16.6189 27.6137 17.5516 26.9261 18.2392C26.2384 18.9268 25.3058 19.3132 24.3333 19.3132M14.5556 11.9798V25.4243C14.5556 25.7484 14.4268 26.0593 14.1976 26.2885C13.9684 26.5177 13.6575 26.6465 13.3333 26.6465H12.1111C11.787 26.6465 11.4761 26.5177 11.2469 26.2885C11.0177 26.0593 10.8889 25.7484 10.8889 25.4243V19.3132M17 11.9798L22.5293 7.37198C22.69 7.23815 22.8855 7.15289 23.0929 7.12619C23.3003 7.09949 23.511 7.13245 23.7003 7.22122C23.8896 7.30998 24.0497 7.45086 24.1618 7.62736C24.2739 7.80386 24.3334 8.00865 24.3333 8.21775V23.0751C24.3334 23.2842 24.2739 23.489 24.1618 23.6655C24.0497 23.842 23.8896 23.9829 23.7003 24.0716C23.511 24.1604 23.3003 24.1933 23.0929 24.1666C22.8855 24.1399 22.69 24.0547 22.5293 23.9209L17 19.3131H7.22222C6.89807 19.3131 6.58719 19.1843 6.35798 18.9551C6.12877 18.7259 6 18.415 6 18.0909V13.202C6 12.8778 6.12877 12.5669 6.35798 12.3377C6.58719 12.1085 6.89807 11.9798 7.22222 11.9798H17Z" stroke="#014122" stroke-width="1.83333" stroke-linecap="round" stroke-linejoin="round"/>
</g>
</svg>
