<svg width="27" height="27" viewBox="0 0 27 27" fill="none" xmlns="http://www.w3.org/2000/svg">
<path d="M8.95801 3.13672H4.76883C4.49446 3.13644 4.22273 3.19027 3.9692 3.29513C3.71566 3.39999 3.4853 3.55383 3.29129 3.74784C3.09729 3.94184 2.94345 4.17221 2.83859 4.42574C2.73372 4.67928 2.67989 4.951 2.68018 5.22537V9.41456C2.6796 9.96967 2.89912 10.5024 3.29064 10.8959C3.68215 11.2895 4.21371 11.5117 4.76883 11.514H8.95801C9.2338 11.5143 9.50693 11.4602 9.76178 11.3548C10.0166 11.2494 10.2482 11.0947 10.4432 10.8997C10.6382 10.7047 10.7928 10.4732 10.8982 10.2183C11.0036 9.96348 11.0578 9.69034 11.0575 9.41456V5.22537C11.0552 4.67026 10.8329 4.13869 10.4394 3.74718C10.0458 3.35567 9.51313 3.13614 8.95801 3.13672ZM20.5915 3.13672H16.4023C15.8472 3.13614 15.3145 3.35567 14.921 3.74718C14.5274 4.13869 14.3052 4.67026 14.3029 5.22537V9.41456C14.3032 9.97128 14.5245 10.5051 14.9181 10.8988C15.3118 11.2924 15.8456 11.5137 16.4023 11.514H20.5915C21.1466 11.5117 21.6782 11.2895 22.0697 10.8959C22.4612 10.5024 22.6808 9.96967 22.6802 9.41456V5.22537C22.6805 4.951 22.6266 4.67928 22.5218 4.42574C22.4169 4.17221 22.2631 3.94184 22.0691 3.74784C21.8751 3.55383 21.6447 3.39999 21.3912 3.29513C21.1376 3.19027 20.8659 3.13644 20.5915 3.13672ZM20.5915 14.7583H16.4023C15.847 14.7578 15.3142 14.9774 14.9206 15.3692C14.527 15.7609 14.3049 16.2928 14.3029 16.8481V21.0373C14.3026 21.313 14.3567 21.5862 14.4621 21.841C14.5675 22.0959 14.7222 22.3274 14.9172 22.5224C15.1122 22.7174 15.3437 22.8721 15.5986 22.9775C15.8534 23.0829 16.1266 23.137 16.4023 23.1367H20.5915C21.1466 23.1344 21.6782 22.9122 22.0697 22.5186C22.4612 22.1251 22.6808 21.5924 22.6802 21.0373V16.8481C22.6805 16.5737 22.6266 16.302 22.5218 16.0484C22.4169 15.7949 22.2631 15.5645 22.0691 15.3705C21.8751 15.1765 21.6447 15.0227 21.3912 14.9178C21.1376 14.813 20.8659 14.7591 20.5915 14.7594M8.95801 14.7583H4.76883C4.21379 14.7615 3.68256 14.9842 3.2912 15.3778C2.89984 15.7714 2.68017 16.3038 2.68018 16.8589V21.0481C2.67989 21.3224 2.73372 21.5942 2.83859 21.8477C2.94345 22.1012 3.09729 22.3316 3.29129 22.5256C3.4853 22.7196 3.71566 22.8734 3.9692 22.9783C4.22273 23.0832 4.49446 23.137 4.76883 23.1367H8.95801C9.51313 23.1373 10.0458 22.9178 10.4394 22.5263C10.8329 22.1347 11.0552 21.6032 11.0575 21.0481V16.8589C11.0578 16.5831 11.0036 16.31 10.8982 16.0551C10.7928 15.8003 10.6382 15.5687 10.4432 15.3737C10.2482 15.1787 10.0166 15.0241 9.76178 14.9187C9.50693 14.8132 9.2338 14.7591 8.95801 14.7594" fill="#014122"/>
<path d="M20.5915 14.7583H16.4023C15.847 14.7578 15.3142 14.9774 14.9206 15.3692C14.527 15.7609 14.3049 16.2928 14.3029 16.8481V21.0373C14.3026 21.313 14.3567 21.5862 14.4621 21.841C14.5675 22.0959 14.7222 22.3274 14.9172 22.5224C15.1122 22.7174 15.3437 22.8721 15.5986 22.9775C15.8534 23.0829 16.1266 23.137 16.4023 23.1367H20.5915C21.1466 23.1344 21.6782 22.9122 22.0697 22.5186C22.4612 22.1251 22.6808 21.5924 22.6802 21.0373V16.8481C22.6805 16.5737 22.6266 16.302 22.5218 16.0484C22.4169 15.7949 22.2631 15.5645 22.0691 15.3705C21.8751 15.1765 21.6447 15.0227 21.3912 14.9178C21.1376 14.813 20.8659 14.7591 20.5915 14.7594M8.95801 14.7583H4.76883C4.21379 14.7615 3.68256 14.9842 3.2912 15.3778C2.89984 15.7714 2.68017 16.3038 2.68018 16.8589V21.0481C2.67989 21.3224 2.73372 21.5942 2.83859 21.8477C2.94345 22.1012 3.09729 22.3316 3.29129 22.5256C3.4853 22.7196 3.71566 22.8734 3.9692 22.9783C4.22273 23.0832 4.49446 23.137 4.76883 23.1367H8.95801C9.51313 23.1373 10.0458 22.9178 10.4394 22.5263C10.8329 22.1347 11.0552 21.6032 11.0575 21.0481V16.8589C11.0578 16.5831 11.0036 16.31 10.8982 16.0551C10.7928 15.8003 10.6382 15.5687 10.4432 15.3737C10.2482 15.1787 10.0166 15.0241 9.76178 14.9187C9.50693 14.8132 9.2338 14.7591 8.95801 14.7594M8.95801 3.13672H4.76883C4.49446 3.13644 4.22273 3.19027 3.9692 3.29513C3.71566 3.39999 3.4853 3.55383 3.29129 3.74784C3.09729 3.94184 2.94345 4.17221 2.83859 4.42574C2.73372 4.67928 2.67989 4.951 2.68018 5.22537V9.41456C2.6796 9.96967 2.89912 10.5024 3.29064 10.8959C3.68215 11.2895 4.21371 11.5117 4.76883 11.514H8.95801C9.2338 11.5143 9.50693 11.4602 9.76178 11.3548C10.0166 11.2494 10.2482 11.0947 10.4432 10.8997C10.6382 10.7047 10.7928 10.4732 10.8982 10.2183C11.0036 9.96348 11.0578 9.69034 11.0575 9.41456V5.22537C11.0552 4.67026 10.8329 4.13869 10.4394 3.74718C10.0458 3.35567 9.51313 3.13614 8.95801 3.13672ZM20.5915 3.13672H16.4023C15.8472 3.13614 15.3145 3.35567 14.921 3.74718C14.5274 4.13869 14.3052 4.67026 14.3029 5.22537V9.41456C14.3032 9.97128 14.5244 10.5051 14.9181 10.8988C15.3118 11.2924 15.8456 11.5137 16.4023 11.514H20.5915C21.1466 11.5117 21.6782 11.2895 22.0697 10.8959C22.4612 10.5024 22.6808 9.96967 22.6802 9.41456V5.22537C22.6805 4.951 22.6266 4.67928 22.5218 4.42574C22.4169 4.17221 22.2631 3.94184 22.0691 3.74784C21.8751 3.55383 21.6447 3.39999 21.3912 3.29513C21.1376 3.19027 20.8659 3.13644 20.5915 3.13672Z" stroke="#014122" stroke-width="1.62162" stroke-linecap="round" stroke-linejoin="round"/>
</svg>
