<svg width="34" height="34" viewBox="0 0 34 34" fill="none" xmlns="http://www.w3.org/2000/svg">
<path d="M23.1628 25.1674L20.855 26.3765C20.7865 26.4122 20.7095 26.4281 20.6325 26.4225C20.5555 26.4168 20.4816 26.39 20.419 26.3448C20.3564 26.2996 20.3076 26.2379 20.278 26.1666C20.2484 26.0952 20.2393 26.0171 20.2515 25.9409L20.6925 23.3792L18.8257 21.5655C18.7699 21.5116 18.7305 21.4432 18.7118 21.368C18.6931 21.2928 18.696 21.2138 18.72 21.1401C18.744 21.0665 18.7883 21.001 18.8478 20.9513C18.9072 20.9016 18.9795 20.8696 19.0562 20.8589L21.636 20.4849L22.7898 18.1549C22.8244 18.0855 22.8775 18.0271 22.9434 17.9863C23.0093 17.9455 23.0853 17.9238 23.1628 17.9238C23.2403 17.9238 23.3163 17.9455 23.3821 17.9863C23.448 18.0271 23.5012 18.0855 23.5357 18.1549L24.6896 20.4849L27.2693 20.8589C27.3459 20.87 27.4178 20.9022 27.477 20.9519C27.5362 21.0017 27.5803 21.067 27.6043 21.1406C27.6283 21.2141 27.6312 21.2928 27.6128 21.3679C27.5943 21.443 27.5552 21.5115 27.4999 21.5655L25.6331 23.3792L26.073 25.9398C26.0862 26.0162 26.0777 26.0947 26.0485 26.1665C26.0193 26.2383 25.9706 26.3004 25.9078 26.3459C25.8451 26.3914 25.7709 26.4184 25.6936 26.4238C25.6163 26.4292 25.539 26.4128 25.4705 26.3765L23.1628 25.1674Z" stroke="#01412B" stroke-width="1.59375" stroke-linecap="round" stroke-linejoin="round"/>
<path d="M10.8377 25.1674L8.52993 26.3765C8.46144 26.4122 8.3844 26.4281 8.3074 26.4225C8.2304 26.4168 8.15647 26.39 8.09387 26.3448C8.03127 26.2996 7.98246 26.2379 7.95289 26.1666C7.92333 26.0952 7.91416 26.0171 7.92643 25.9409L8.36737 23.3792L6.50055 21.5655C6.44483 21.5116 6.40538 21.4432 6.3867 21.368C6.36802 21.2928 6.37086 21.2138 6.3949 21.1401C6.41894 21.0665 6.46322 21.001 6.52267 20.9513C6.58212 20.9016 6.65435 20.8696 6.73112 20.8589L9.31087 20.4849L10.4647 18.1549C10.4993 18.0855 10.5524 18.0271 10.6183 17.9863C10.6842 17.9455 10.7602 17.9238 10.8377 17.9238C10.9152 17.9238 10.9912 17.9455 11.057 17.9863C11.1229 18.0271 11.1761 18.0855 11.2106 18.1549L12.3645 20.4849L14.9442 20.8589C15.0208 20.87 15.0927 20.9022 15.1519 20.9519C15.2111 21.0017 15.2552 21.067 15.2792 21.1406C15.3032 21.2141 15.3061 21.2928 15.2877 21.3679C15.2692 21.443 15.2301 21.5115 15.1748 21.5655L13.308 23.3792L13.7479 25.9398C13.7611 26.0162 13.7526 26.0947 13.7234 26.1665C13.6942 26.2383 13.6455 26.3004 13.5827 26.3459C13.52 26.3914 13.4458 26.4184 13.3685 26.4238C13.2912 26.4292 13.2139 26.4128 13.1454 26.3765L10.8377 25.1674Z" stroke="#01412B" stroke-width="1.59375" stroke-linecap="round" stroke-linejoin="round"/>
<path d="M17 14.5424L14.6922 15.7515C14.6237 15.7872 14.5467 15.8031 14.4697 15.7975C14.3927 15.7918 14.3188 15.765 14.2562 15.7198C14.1936 15.6746 14.1448 15.6129 14.1152 15.5416C14.0856 15.4702 14.0765 15.3921 14.0887 15.3159L14.5297 12.7542L12.6628 10.9405C12.6071 10.8866 12.5677 10.8182 12.549 10.743C12.5303 10.6678 12.5332 10.5888 12.5572 10.5151C12.5812 10.4415 12.6255 10.376 12.685 10.3263C12.7444 10.2766 12.8166 10.2446 12.8934 10.2339L15.4732 9.85995L16.627 7.52988C16.6615 7.46048 16.7147 7.40209 16.7806 7.36127C16.8465 7.32045 16.9225 7.29883 17 7.29883C17.0775 7.29883 17.1534 7.32045 17.2193 7.36127C17.2852 7.40209 17.3384 7.46048 17.3729 7.52988L18.5268 9.85995L21.1065 10.2339C21.1831 10.245 21.255 10.2772 21.3142 10.3269C21.3734 10.3767 21.4175 10.442 21.4415 10.5156C21.4655 10.5891 21.4684 10.6678 21.4499 10.7429C21.4315 10.818 21.3924 10.8865 21.3371 10.9405L19.4703 12.7542L19.9102 15.3148C19.9234 15.3912 19.9149 15.4697 19.8857 15.5415C19.8565 15.6133 19.8078 15.6754 19.745 15.7209C19.6823 15.7664 19.6081 15.7934 19.5308 15.7988C19.4535 15.8042 19.3762 15.7878 19.3077 15.7515L17 14.5424Z" stroke="#01412B" stroke-width="1.59375" stroke-linecap="round" stroke-linejoin="round"/>
</svg>
