<svg width="34" height="34" viewBox="0 0 34 34" fill="none" xmlns="http://www.w3.org/2000/svg">
<g opacity="0.5">
<path d="M8.5 29.8884V27.0551C8.5 25.5522 9.09702 24.1109 10.1597 23.0482C11.2224 21.9855 12.6638 21.3884 14.1667 21.3884H19.8333C21.3362 21.3884 22.7776 21.9855 23.8403 23.0482C24.903 24.1109 25.5 25.5522 25.5 27.0551V29.8884M11.3333 10.0551C11.3333 11.558 11.9304 12.9993 12.9931 14.062C14.0558 15.1247 15.4971 15.7218 17 15.7218C18.5029 15.7218 19.9442 15.1247 21.0069 14.062C22.0696 12.9993 22.6667 11.558 22.6667 10.0551C22.6667 8.5522 22.0696 7.11086 21.0069 6.04816C19.9442 4.98545 18.5029 4.38843 17 4.38843C15.4971 4.38843 14.0558 4.98545 12.9931 6.04816C11.9304 7.11086 11.3333 8.5522 11.3333 10.0551Z" stroke="#014122" stroke-width="1.59375" stroke-linecap="round" stroke-linejoin="round"/>
</g>
</svg>
