<svg width="34" height="34" viewBox="0 0 34 34" fill="none" xmlns="http://www.w3.org/2000/svg">
<path d="M12.9627 18.4134C14.044 15.55 15.8783 13.0316 18.2721 11.1241C20.6658 9.21658 23.5301 7.99073 26.5627 7.57593C26.1479 10.6085 24.9216 13.4728 23.0141 15.8666C21.1066 18.2603 18.5882 20.0946 15.7248 21.1759M15.5126 13.9509C17.5772 14.9038 19.2347 16.5613 20.1876 18.6259M7.4375 26.7009V22.4509C7.4375 21.6104 7.68676 20.7887 8.15375 20.0898C8.62075 19.3908 9.28451 18.8461 10.0611 18.5244C10.8377 18.2028 11.6922 18.1186 12.5166 18.2826C13.3411 18.4466 14.0983 18.8514 14.6927 19.4457C15.2871 20.0401 15.6919 20.7974 15.8558 21.6218C16.0198 22.4462 15.9357 23.3007 15.614 24.0773C15.2923 24.8539 14.7476 25.5177 14.0487 25.9847C13.3498 26.4517 12.5281 26.7009 11.6875 26.7009H7.4375Z" stroke="#01412B" stroke-opacity="0.482353" stroke-width="1.59375" stroke-linecap="round" stroke-linejoin="round"/>
</svg>
