<svg width="34" height="34" viewBox="0 0 34 34" fill="none" xmlns="http://www.w3.org/2000/svg">
<path d="M12.9627 18.1363C14.044 15.2729 15.8783 12.7545 18.2721 10.847C20.6658 8.93948 23.5301 7.71363 26.5627 7.29883C26.1479 10.3314 24.9216 13.1957 23.0141 15.5895C21.1066 17.9832 18.5882 19.8175 15.7248 20.8988M15.5126 13.6738C17.5772 14.6267 19.2347 16.2842 20.1876 18.3488M7.4375 26.4238V22.1738C7.4375 21.3333 7.68676 20.5116 8.15375 19.8127C8.62075 19.1137 9.28451 18.569 10.0611 18.2473C10.8377 17.9257 11.6922 17.8415 12.5166 18.0055C13.3411 18.1695 14.0983 18.5743 14.6927 19.1686C15.2871 19.763 15.6919 20.5203 15.8558 21.3447C16.0198 22.1691 15.9357 23.0236 15.614 23.8002C15.2923 24.5768 14.7476 25.2406 14.0487 25.7076C13.3498 26.1746 12.5281 26.4238 11.6875 26.4238H7.4375Z" stroke="#01412B" stroke-width="1.59375" stroke-linecap="round" stroke-linejoin="round"/>
</svg>
