<svg width="34" height="34" viewBox="0 0 34 34" fill="none" xmlns="http://www.w3.org/2000/svg">
<path d="M15.9375 22.4509H9.5625C8.71712 22.4509 7.90637 22.1151 7.3086 21.5173C6.71083 20.9196 6.375 20.1088 6.375 19.2634V10.7634C6.375 9.91805 6.71083 9.1073 7.3086 8.50952C7.90637 7.91175 8.71712 7.57593 9.5625 7.57593H22.3125C23.1579 7.57593 23.9686 7.91175 24.5664 8.50952C25.1642 9.1073 25.5 9.91805 25.5 10.7634V15.5447M6.375 12.8884H25.5M20.1875 22.4509H26.5625M26.5625 22.4509L23.375 19.2634M26.5625 22.4509L23.375 25.6384M10.6302 18.2009H10.6355M14.875 18.2009H17" stroke="#01412B" stroke-opacity="0.482353" stroke-width="1.59375" stroke-linecap="round" stroke-linejoin="round"/>
</svg>
