<svg width="34" height="34" viewBox="0 0 34 34" fill="none" xmlns="http://www.w3.org/2000/svg">
<path d="M15.9375 22.1738H9.5625C8.71712 22.1738 7.90637 21.838 7.3086 21.2402C6.71083 20.6425 6.375 19.8317 6.375 18.9863V10.4863C6.375 9.64095 6.71083 8.8302 7.3086 8.23243C7.90637 7.63465 8.71712 7.29883 9.5625 7.29883H22.3125C23.1579 7.29883 23.9686 7.63465 24.5664 8.23243C25.1642 8.8302 25.5 9.64095 25.5 10.4863V15.2676M6.375 12.6113H25.5M20.1875 22.1738H26.5625M26.5625 22.1738L23.375 18.9863M26.5625 22.1738L23.375 25.3613M10.6302 17.9238H10.6355M14.875 17.9238H17" stroke="#01412B" stroke-width="1.59375" stroke-linecap="round" stroke-linejoin="round"/>
</svg>
