<svg width="34" height="34" viewBox="0 0 34 34" fill="none" xmlns="http://www.w3.org/2000/svg">
<path d="M8.5 29.6113V26.778C8.5 25.2751 9.09702 23.8338 10.1597 22.7711C11.2224 21.7084 12.6638 21.1113 14.1667 21.1113H19.8333C21.3362 21.1113 22.7776 21.7084 23.8403 22.7711C24.903 23.8338 25.5 25.2751 25.5 26.778V29.6113M11.3333 9.77799C11.3333 11.2809 11.9304 12.7222 12.9931 13.7849C14.0558 14.8476 15.4971 15.4447 17 15.4447C18.5029 15.4447 19.9442 14.8476 21.0069 13.7849C22.0696 12.7222 22.6667 11.2809 22.6667 9.77799C22.6667 8.2751 22.0696 6.83376 21.0069 5.77106C19.9442 4.70835 18.5029 4.11133 17 4.11133C15.4971 4.11133 14.0558 4.70835 12.9931 5.77106C11.9304 6.83376 11.3333 8.2751 11.3333 9.77799Z" stroke="#014122" stroke-width="1.59375" stroke-linecap="round" stroke-linejoin="round"/>
</svg>
