<svg width="34" height="34" viewBox="0 0 34 34" fill="none" xmlns="http://www.w3.org/2000/svg">
<path d="M16.9998 7.57593C19.4816 9.77166 22.7208 10.9149 26.0311 10.7634C26.513 12.4029 26.6605 14.1225 26.4647 15.8201C26.2689 17.5176 25.7339 19.1585 24.8914 20.6452C24.049 22.132 22.9162 23.4341 21.5606 24.4744C20.2049 25.5147 18.6539 26.2719 16.9998 26.7009M16.9998 7.57593C14.518 9.77166 11.2788 10.9149 7.96857 10.7634C7.48663 12.4029 7.33917 14.1225 7.53494 15.8201C7.73072 17.5176 8.26574 19.1585 9.10821 20.6452C9.95068 22.132 11.0834 23.4341 12.4391 24.4744C13.7948 25.5147 15.3457 26.2719 16.9998 26.7009M16.9998 7.57593V26.7009" stroke="#01412B" stroke-opacity="0.5" stroke-width="1.59375" stroke-linecap="round" stroke-linejoin="round"/>
</svg>
