<svg width="34" height="34" viewBox="0 0 34 34" fill="none" xmlns="http://www.w3.org/2000/svg">
<path d="M23.1628 25.444L20.855 26.6531C20.7865 26.6888 20.7095 26.7047 20.6325 26.6991C20.5555 26.6935 20.4815 26.6666 20.4189 26.6214C20.3563 26.5762 20.3075 26.5145 20.278 26.4432C20.2484 26.3719 20.2392 26.2937 20.2515 26.2175L20.6924 23.6558L18.8256 21.8421C18.7699 21.7883 18.7305 21.7198 18.7118 21.6446C18.6931 21.5694 18.6959 21.4904 18.72 21.4167C18.744 21.3431 18.7883 21.2776 18.8477 21.2279C18.9072 21.1782 18.9794 21.1462 19.0562 21.1356L21.6359 20.7616L22.7898 18.4315C22.8243 18.3621 22.8775 18.3037 22.9434 18.2629C23.0093 18.2221 23.0852 18.2004 23.1628 18.2004C23.2403 18.2004 23.3162 18.2221 23.3821 18.2629C23.448 18.3037 23.5012 18.3621 23.5357 18.4315L24.6896 20.7616L27.2693 21.1356C27.3459 21.1466 27.4178 21.1788 27.477 21.2285C27.5362 21.2783 27.5803 21.3436 27.6042 21.4172C27.6282 21.4907 27.6312 21.5694 27.6127 21.6445C27.5943 21.7196 27.5552 21.7881 27.4999 21.8421L25.6331 23.6558L26.0729 26.2164C26.0861 26.2928 26.0777 26.3713 26.0485 26.4431C26.0193 26.5149 25.9706 26.5771 25.9078 26.6225C25.8451 26.668 25.7708 26.695 25.6935 26.7004C25.6162 26.7058 25.539 26.6894 25.4705 26.6531L23.1628 25.444Z" stroke="#01412B" stroke-opacity="0.482353" stroke-width="1.59375" stroke-linecap="round" stroke-linejoin="round"/>
<path d="M10.8376 25.444L8.5299 26.6531C8.46141 26.6888 8.38437 26.7047 8.30737 26.6991C8.23037 26.6935 8.15644 26.6666 8.09384 26.6214C8.03124 26.5762 7.98243 26.5145 7.95286 26.4432C7.9233 26.3719 7.91413 26.2937 7.9264 26.2175L8.36734 23.6558L6.50052 21.8421C6.4448 21.7883 6.40535 21.7198 6.38667 21.6446C6.36799 21.5694 6.37083 21.4904 6.39487 21.4167C6.41891 21.3431 6.46319 21.2776 6.52264 21.2279C6.58209 21.1782 6.65432 21.1462 6.73109 21.1356L9.31084 20.7616L10.4647 18.4315C10.4992 18.3621 10.5524 18.3037 10.6183 18.2629C10.6842 18.2221 10.7601 18.2004 10.8376 18.2004C10.9152 18.2004 10.9911 18.2221 11.057 18.2629C11.1229 18.3037 11.1761 18.3621 11.2106 18.4315L12.3645 20.7616L14.9442 21.1356C15.0208 21.1466 15.0927 21.1788 15.1519 21.2285C15.2111 21.2783 15.2552 21.3436 15.2791 21.4172C15.3031 21.4907 15.3061 21.5694 15.2876 21.6445C15.2692 21.7196 15.2301 21.7881 15.1748 21.8421L13.308 23.6558L13.7478 26.2164C13.761 26.2928 13.7526 26.3713 13.7234 26.4431C13.6942 26.5149 13.6455 26.5771 13.5827 26.6225C13.52 26.668 13.4457 26.695 13.3684 26.7004C13.2911 26.7058 13.2139 26.6894 13.1454 26.6531L10.8376 25.444Z" stroke="#01412B" stroke-opacity="0.482353" stroke-width="1.59375" stroke-linecap="round" stroke-linejoin="round"/>
<path d="M16.9999 14.819L14.6922 16.0281C14.6237 16.0638 14.5467 16.0797 14.4697 16.0741C14.3927 16.0685 14.3187 16.0416 14.2561 15.9964C14.1935 15.9512 14.1447 15.8895 14.1152 15.8182C14.0856 15.7469 14.0764 15.6687 14.0887 15.5925L14.5296 13.0308L12.6628 11.2171C12.6071 11.1633 12.5676 11.0948 12.549 11.0196C12.5303 10.9444 12.5331 10.8654 12.5572 10.7917C12.5812 10.7181 12.6255 10.6526 12.6849 10.6029C12.7444 10.5532 12.8166 10.5212 12.8934 10.5106L15.4731 10.1366L16.627 7.80649C16.6615 7.7371 16.7147 7.6787 16.7806 7.63788C16.8465 7.59707 16.9224 7.57544 16.9999 7.57544C17.0774 7.57544 17.1534 7.59707 17.2193 7.63788C17.2852 7.6787 17.3384 7.7371 17.3729 7.80649L18.5268 10.1366L21.1065 10.5106C21.183 10.5216 21.255 10.5538 21.3142 10.6035C21.3734 10.6533 21.4174 10.7186 21.4414 10.7922C21.4654 10.8657 21.4684 10.9444 21.4499 11.0195C21.4315 11.0946 21.3924 11.1631 21.3371 11.2171L19.4703 13.0308L19.9101 15.5914C19.9233 15.6678 19.9149 15.7463 19.8857 15.8181C19.8565 15.8899 19.8077 15.9521 19.745 15.9975C19.6823 16.043 19.608 16.07 19.5307 16.0754C19.4534 16.0808 19.3762 16.0644 19.3077 16.0281L16.9999 14.819Z" stroke="#01412B" stroke-opacity="0.482353" stroke-width="1.59375" stroke-linecap="round" stroke-linejoin="round"/>
</svg>
