<svg width="34" height="34" viewBox="0 0 34 34" fill="none" xmlns="http://www.w3.org/2000/svg">
<path d="M17 7.29883C19.4818 9.49456 22.721 10.6378 26.0313 10.4863C26.5132 12.1258 26.6607 13.8454 26.4649 15.543C26.2691 17.2405 25.7341 18.8814 24.8916 20.3681C24.0492 21.8549 22.9164 23.157 21.5607 24.1973C20.2051 25.2376 18.6541 25.9948 17 26.4238M17 7.29883C14.5182 9.49456 11.279 10.6378 7.96876 10.4863C7.48682 12.1258 7.33935 13.8454 7.53512 15.543C7.7309 17.2405 8.26592 18.8814 9.10839 20.3681C9.95086 21.8549 11.0836 23.157 12.4393 24.1973C13.795 25.2376 15.3459 25.9948 17 26.4238M17 7.29883V26.4238" stroke="#01412B" stroke-width="1.59375" stroke-linecap="round" stroke-linejoin="round"/>
</svg>
