<svg width="42" height="14" viewBox="0 0 42 14" fill="none" xmlns="http://www.w3.org/2000/svg">
<path d="M12.0753 13.7356L14.3511 0.380447H17.9913L15.7137 13.7356H12.0753ZM28.8654 0.668344C28.1444 0.397775 27.0142 0.107422 25.603 0.107422C22.0059 0.107422 19.4723 1.91879 19.4506 4.51484C19.4303 6.43386 21.2595 7.50447 22.6403 8.14324C24.0573 8.79803 24.5336 9.21542 24.5267 9.79988C24.5177 10.6952 23.3952 11.1039 22.3488 11.1039C20.8919 11.1039 20.1179 10.9015 18.9224 10.4031L18.4531 10.1909L17.9424 13.1805C18.7926 13.5535 20.3648 13.8763 21.9973 13.8931C25.8239 13.8931 28.308 12.1024 28.3363 9.33003C28.3498 7.81072 27.3801 6.6547 25.2798 5.70143C24.0075 5.08361 23.2283 4.67135 23.2365 4.04575C23.2365 3.49063 23.8961 2.89702 25.3214 2.89702C26.5116 2.87854 27.3741 3.13812 28.0459 3.40869L28.3721 3.5628L28.8654 0.668344ZM38.233 0.380242H35.4202C34.5489 0.380242 33.8966 0.618065 33.5141 1.48776L28.1078 13.7268H31.9303C31.9303 13.7268 32.5552 12.0812 32.6965 11.7199C33.1143 11.7199 36.8277 11.7256 37.3586 11.7256C37.4675 12.1932 37.8015 13.7268 37.8015 13.7268H41.1793L38.233 0.379833V0.380242ZM33.7701 9.0042C34.0712 8.23472 35.2205 5.27081 35.2205 5.27081C35.1991 5.30636 35.5194 4.49758 35.7031 3.99615L35.9491 5.1476C35.9491 5.1476 36.6461 8.33556 36.7919 9.004H33.7701V9.0042ZM8.98499 0.380242L5.42114 9.4879L5.04148 7.6371C4.37795 5.50352 2.31089 3.19195 0 2.0347L3.25877 13.7143L7.11025 13.71L12.8412 0.380105L8.98499 0.380038" fill="#0E4595"/>
</svg>
