<?xml version="1.0" encoding="UTF-8"?>
<svg id="Layer_2" data-name="Layer 2" xmlns="http://www.w3.org/2000/svg" viewBox="0 0 53.63 39.83">
  <defs>
    <style>
      .cls-1 {
        fill: #014122;
      }
    </style>
  </defs>
  <path class="cls-1" d="M34.34,2.02c.43,.25,1.64,1.08,2.24,1.73,1.04,1.12,1.7,2.5,2.08,4.06,.96,3.96-.73,7.97-4.23,10.2-1.77,1.13-4.2,1.73-6.27,1.93-3,.29-4.94,.04-6.39,.82-.6,.33-1.15,1.02-.9,1.48,.51,.89,1.95,.8,2.52,.82,1.28,.05,2.57,0,3.85-.03,1.74-.04,4.05-.25,5.79-.1,1.16,.1,2.84,.45,4.33,1.42,1.78,1.15,2.65,2.82,2.73,4.93,.08,2.35-.81,4.33-2.35,6.03-1.94,2.14-4.43,3.29-7.18,3.95-2.42,.58-4.87,.69-7.33,.47-2.1-.18-4.14-.66-6-1.72-1.2-.69-2.19-1.59-2.89-2.81-.4-.7-.33-1.58,.03-2.27,.2-.4,.92-1.24,1.58-1.64,1.26-.76,2.16-.9,3.64-.95,.63-.02,1.21,.07,1.55,.18,.6,.19,.61,.58,.61,.58-.7,.24-1.08,.52-1.29,.79-.26,.35-.19,.6,.1,.91,.3,.32,.65,.61,1.04,.82,.98,.52,2.06,.71,3.15,.83,1.7,.18,3.39,.06,5.03-.47,1.07-.35,2.01-.91,2.8-1.72,.86-.89,.73-1.85-.36-2.45-.29-.16-.63-.26-.96-.32-1.12-.23-2.25-.14-3.37-.04-1.69,.15-3.37,.39-5.06,.54-.8,.07-3.59,.02-4.56-.26-1.09-.31-2.18-.9-2.56-1.19-2.45-1.9-2.44-5.41-.28-7.59,1.02-1.03,2.07-2,3.35-2.7,.32-.17,.32-.25,.04-.49-1.95-1.63-3.11-3.71-3.42-6.24-.35-2.82,.44-5.33,2.29-7.46,.55-.63,1.14-1.18,1.78-1.65C21.77,.68,24.15,.32,25.25,.17c1.1-.15,2.71-.24,4.59,.13,0,0,2.34,.46,4.51,1.73Zm-2.68,6.87c.03-2.77-2.84-4.83-5.53-4.21-1.03,.24-1.82,.89-2.45,1.72-.75,.98-1.1,2.1-.96,3.35,.12,1.03,.59,1.9,1.17,2.72,.91,1.3,1.84,2.6,2.75,3.9,.33,.47,.59,.47,.92,.01,.95-1.34,1.9-2.67,2.84-4.01,.72-1.02,1.28-2.1,1.26-3.48Z"/>
</svg>