<?xml version="1.0" encoding="UTF-8"?>
<svg id="Layer_2" data-name="Layer 2" xmlns="http://www.w3.org/2000/svg" xmlns:xlink="http://www.w3.org/1999/xlink" viewBox="0 0 1920 1080">
  <defs>
    <style>
      .cls-1 {
        clip-path: url(#clippath);
      }

      .cls-2 {
        fill: none;
      }

      .cls-3 {
        fill: #014122;
      }
    </style>
    <clipPath id="clippath">
      <rect class="cls-2" x="929.97" y="523.79" width="118.26" height="36.72"/>
    </clipPath>
  </defs>
  <path class="cls-3" d="M886.97,521.09c.45,.26,1.73,1.14,2.36,1.83,1.1,1.18,1.8,2.64,2.19,4.28,1.01,4.18-.77,8.41-4.46,10.76-1.87,1.19-4.43,1.82-6.62,2.03-3.17,.3-5.22,.04-6.74,.87-.64,.34-1.22,1.08-.95,1.56,.53,.94,2.06,.84,2.66,.86,1.35,.05,2.71,0,4.07-.03,1.84-.04,4.28-.26,6.11-.1,1.22,.11,2.99,.48,4.57,1.5,1.88,1.22,2.8,2.97,2.88,5.2,.09,2.48-.86,4.57-2.48,6.36-2.04,2.26-4.68,3.48-7.58,4.17-2.55,.61-5.14,.73-7.74,.5-2.22-.19-4.37-.69-6.33-1.82-1.27-.73-2.31-1.68-3.05-2.97-.43-.74-.34-1.67,.03-2.4,.21-.42,.97-1.31,1.66-1.73,1.33-.8,2.28-.95,3.84-1.01,.66-.02,1.27,.07,1.64,.19,.63,.2,.65,.61,.64,.61-.74,.25-1.14,.54-1.36,.84-.27,.37-.2,.63,.11,.96,.31,.34,.69,.65,1.09,.86,1.04,.54,2.18,.75,3.33,.87,1.8,.19,3.58,.06,5.31-.5,1.13-.37,2.13-.96,2.96-1.82,.91-.94,.77-1.95-.38-2.59-.31-.17-.67-.27-1.02-.34-1.18-.24-2.38-.14-3.56-.04-1.78,.16-3.55,.42-5.34,.57-.84,.07-3.79,.02-4.82-.27-1.15-.33-2.3-.94-2.71-1.26-2.59-2-2.58-5.71-.3-8.01,1.07-1.08,2.19-2.12,3.54-2.85,.34-.18,.34-.27,.04-.52-2.06-1.72-3.28-3.92-3.61-6.58-.37-2.98,.46-5.62,2.42-7.88,.58-.67,1.21-1.25,1.88-1.74,2.43-1.8,4.94-2.18,6.1-2.34,1.16-.16,2.86-.26,4.85,.13,0,0,2.47,.48,4.76,1.82Zm-2.83,7.26c.03-2.92-2.99-5.1-5.84-4.44-1.09,.25-1.92,.94-2.59,1.81-.79,1.04-1.16,2.21-1.01,3.54,.12,1.08,.62,2,1.23,2.87,.97,1.38,1.94,2.74,2.91,4.12,.34,.49,.62,.5,.97,.01,1-1.41,2-2.82,3-4.23,.76-1.07,1.35-2.21,1.33-3.68Z"/>
  <g class="cls-1">
    <g>
      <path class="cls-3" d="M952.36,546.6c0,1.24,.01,2.47,0,3.71-.02,1.22-.67,1.69-1.79,1.24-1.03-.41-1.95-.4-3.04-.04-4.37,1.43-8.62,1.26-12.45-1.59-2.49-1.85-3.91-4.41-4.59-7.38-.81-3.5-.72-6.98,.77-10.28,2.07-4.6,5.65-7.34,10.76-8.04,3.01-.41,5.89,.19,8.73,1.04,.47,.14,.82,.43,.84,.98,.08,2.31,.2,4.62,.23,6.92,.01,.83-.81,1.25-1.45,.72-.7-.57-1.32-1.28-1.85-2.01-.54-.76-.9-1.65-1.41-2.44-2.36-3.63-6.52-3.67-8.99-.11-1.15,1.65-1.68,3.51-1.8,5.47-.2,3.23-.11,6.45,1.07,9.54,.67,1.76,1.62,3.34,3.19,4.47,1.05,.76,2.23,1.08,3.52,1,1.47-.09,2.4-.87,2.51-2.34,.09-1.18,0-2.37-.08-3.55-.07-1.14-.78-1.92-1.65-2.59-.29-.23-.6-.43-.87-.68-.62-.58-.49-1.23,.3-1.56,.21-.09,.45-.13,.67-.13,2.57,0,5.14-.01,7.71,0,.27,0,.56,.05,.81,.16,.7,.3,.85,1.07,.35,1.64-.14,.15-.28,.33-.45,.42-.93,.5-1.12,1.28-1.06,2.26,.07,1.05,.02,2.11,.01,3.16h0Z"/>
      <path class="cls-3" d="M966.9,549.66c-.35,.36-.6,.64-.87,.91-1.96,1.89-5.15,2.36-7.53,1.14-1.4-.72-2.12-1.88-2.25-3.39-.1-1.12-.13-2.24-.14-3.36-.02-2.43-.02-4.86,0-7.28,0-.85-.34-1.45-1.03-1.89-.17-.11-.4-.19-.51-.34-.22-.29-.54-.65-.5-.93,.04-.3,.41-.7,.72-.79,1.92-.56,3.9-.74,5.89-.66,.62,.03,.74,.51,.73,1.05,0,3.16,0,6.32,0,9.48,0,.89-.01,1.79,.01,2.68,.04,1.56,.71,2.47,1.85,2.58,1.66,.16,3.01-.65,3.37-2.11,.15-.62,.25-1.26,.26-1.9,.03-2.54,.03-5.09,.02-7.63,0-.98-.62-1.57-1.37-2.09-.24-.16-.56-.5-.52-.69,.06-.27,.38-.64,.64-.69,1.49-.28,2.99-.59,4.5-.68,2.39-.14,2.09-.04,2.09,1.98,0,3.64,0,7.28,.02,10.93,0,.64,.02,1.29,.13,1.91,.08,.41,.29,.81,.54,1.15,.31,.42,.72,.77,1.08,1.16,.43,.46,.4,.81-.16,1.08-.45,.22-.95,.41-1.44,.46-1.42,.15-2.85,.25-4.28,.32-.82,.04-1.12-.28-1.2-1.09-.04-.4-.04-.8-.06-1.31h0Z"/>
      <path class="cls-3" d="M1040.77,545.3c.84-2.7,1.7-5.39,2.5-8.11,.43-1.46,.27-1.69-1-2.53-.25-.16-.54-.54-.51-.78,.04-.3,.38-.57,.64-.81,.12-.11,.35-.13,.53-.14,1.41-.01,2.83-.05,4.24,.02,.37,.02,.9,.32,1.03,.62,.12,.3-.05,.89-.31,1.15-1.32,1.35-2.17,2.96-2.78,4.7-1.46,4.13-2.82,8.31-4.35,12.41-.7,1.87-1.59,3.7-2.64,5.41-1.11,1.82-2.81,3.04-5.05,3.23-1.29,.11-2.48-.23-3.5-1.04-1.11-.88-1.44-2.07-1.14-3.39,.3-1.33,1.16-2.28,2.47-2.76,.65-.23,1.19,.02,1.52,.61,.3,.54,.55,1.11,.87,1.63,.57,.94,1.49,1.17,2.43,.58,.97-.61,1.59-1.53,2-2.56,.12-.29,.01-.73-.12-1.04-.7-1.67-1.41-3.33-2.17-4.96-1.45-3.11-2.88-6.24-4.43-9.3-.61-1.21-1.48-2.31-2.3-3.4-.6-.8-.42-1.57,.56-1.84,.07-.02,.13-.05,.2-.05,2.5,.01,5-.05,7.49,.07,1.2,.06,1.4,.76,.62,1.65-.81,.92-.79,1.98-.48,3.05,.79,2.69,2.16,5.12,3.46,7.59,.08,0,.16,0,.24,0h0Z"/>
      <path class="cls-3" d="M979.89,542.09c.04,1.74,.29,3.31,1.39,4.61,1.79,2.13,4.77,2.32,6.9,.48,.45-.39,.9-.8,1.4-1.12,.23-.15,.72-.23,.85-.1,.2,.19,.32,.65,.23,.9-1.01,2.65-2.7,4.73-5.6,5.3-5.36,1.06-9.37-1.6-10.31-7.01-.45-2.59-.31-5.15,.83-7.59,1.86-3.95,6.26-5.86,10.43-4.54,2.65,.84,4.34,3.15,4.62,6.01,.24,2.5-.5,3.18-2.89,3.08-2.33-.09-4.68-.02-7.01-.02h-.83Zm5.8-2.22c-.02-1.42-.18-2.74-.95-3.91-.85-1.3-2.53-1.47-3.55-.32-1.07,1.2-1.18,2.7-1.28,4.24h5.78Z"/>
      <path class="cls-3" d="M998.65,552.45c-.86-.15-1.98-.28-3.07-.56-2.3-.59-3.47-2.13-3.62-4.45-.04-.61-.08-1.24,0-1.84,.04-.27,.36-.64,.61-.7,.26-.06,.71,.12,.89,.34,.4,.47,.68,1.03,1,1.56,.66,1.09,1.4,2.14,2.52,2.78,.57,.32,1.3,.51,1.95,.51,1.37,0,2.12-1.21,1.67-2.51-.34-.99-1.11-1.62-1.91-2.21-1.57-1.17-3.22-2.24-4.74-3.46-2.22-1.79-2.65-4.61-1.13-6.81,.91-1.32,2.26-2,3.8-2.31,2.27-.46,4.46,.08,6.61,.72,.39,.12,.85,.58,.97,.97,.33,1.11,.54,2.26,.73,3.4,.08,.48-.01,1-.58,1.2-.57,.2-.8-.27-1.1-.62-.84-.97-1.67-1.95-2.59-2.85-.58-.56-1.32-.92-2.19-.87-1.11,.06-1.75,.98-1.41,2.02,.33,.99,1.08,1.65,1.89,2.22,1.54,1.09,3.15,2.09,4.69,3.18,2.01,1.42,2.85,3.35,2.2,5.75-.65,2.38-2.28,3.82-4.73,4.29-.72,.14-1.47,.16-2.48,.27h0Z"/>
      <path class="cls-3" d="M1027.43,536.68c0,3.71,.01,7.42,0,11.13,0,.78,.2,1.42,.73,2,.37,.4,.81,.82,.52,1.45-.28,.62-.87,.74-1.45,.75-1.67,.02-3.33,0-5,0-.16,0-.35,0-.48-.07-.34-.2-.82-.38-.93-.68-.11-.3,.06-.87,.31-1.09,.74-.65,.89-1.42,.89-2.34-.02-6.02-.03-12.04,0-18.06,0-1.14-.37-1.98-1.35-2.59-.69-.43-.73-1.06,0-1.36,1.76-.73,3.55-1.41,5.37-1.95,.9-.27,1.4,.29,1.4,1.28,0,3.85,0,7.69,0,11.54h0Z"/>
      <path class="cls-3" d="M1014.59,532.92c1.44,0,2.82-.02,4.21,.02,.33,0,.65,.22,.98,.34-.16,.35-.23,.81-.5,1.03-.93,.78-2.09,1.02-3.28,1.11-.46,.03-.92,0-1.44,0-.02,.24-.05,.44-.05,.63,0,3.18,0,6.37,0,9.55,0,.57,.05,1.14,.14,1.71,.18,1.28,1.27,1.81,2.41,1.17,.46-.26,.83-.67,1.29-.92,.3-.16,.7-.16,1.05-.23,.07,.36,.29,.77,.19,1.07-.56,1.74-1.6,3.12-3.44,3.65-1.78,.52-3.59,.57-5.18-.56-1.26-.9-1.88-2.22-1.91-3.73-.06-3.53-.04-7.05-.04-10.58,0-.21,0-.41,0-.62-.08-1.09-.29-1.29-1.38-1.36-.23-.02-.46-.03-.69-.05-.55-.05-.93-.31-.99-.87-.06-.54,.21-.91,.73-1.12,.62-.24,1.26-.46,1.85-.77,1.65-.87,2.94-2.13,3.88-3.73,.19-.32,.32-.69,.58-.93,.27-.25,.75-.61,.97-.52,.32,.13,.64,.61,.67,.97,.08,.91,0,1.83-.02,2.74,0,.64,0,1.27,0,2h0Z"/>
    </g>
  </g>
</svg>