<?xml version="1.0" encoding="UTF-8"?>
<svg id="Layer_2" data-name="Layer 2" xmlns="http://www.w3.org/2000/svg" xmlns:xlink="http://www.w3.org/1999/xlink" viewBox="0 0 266.29 56">
  <defs>
    <style>
      .cls-1 {
        clip-path: url(#clippath);
      }

      .cls-2 {
        fill: none;
      }

      .cls-3 {
        fill: #014122;
      }
    </style>
    <clipPath id="clippath">
      <rect class="cls-2" x="97.64" y="6.39" width="159.79" height="49.61"/>
    </clipPath>
  </defs>
  <path class="cls-3" d="M48.86,2.79c.6,.35,2.3,1.52,3.15,2.43,1.47,1.58,2.4,3.52,2.92,5.71,1.35,5.58-1.03,11.21-5.95,14.35-2.49,1.59-5.91,2.43-8.82,2.71-4.23,.4-6.96,.06-8.99,1.16-.85,.46-1.62,1.44-1.26,2.08,.71,1.26,2.75,1.12,3.55,1.15,1.81,.07,3.62,0,5.43-.04,2.45-.06,5.7-.35,8.14-.14,1.63,.14,3.99,.64,6.09,2,2.51,1.62,3.74,3.97,3.84,6.93,.12,3.31-1.15,6.1-3.31,8.49-2.73,3.01-6.24,4.63-10.1,5.56-3.4,.81-6.85,.97-10.32,.67-2.96-.26-5.82-.92-8.44-2.42-1.69-.97-3.08-2.23-4.07-3.95-.57-.99-.46-2.22,.04-3.2,.29-.56,1.3-1.75,2.22-2.3,1.77-1.06,3.04-1.27,5.12-1.34,.88-.03,1.7,.1,2.18,.25,.84,.27,.86,.81,.86,.82-.99,.34-1.53,.73-1.82,1.12-.36,.49-.26,.84,.14,1.28,.42,.45,.92,.86,1.46,1.15,1.38,.73,2.91,1,4.44,1.16,2.4,.25,4.77,.08,7.08-.66,1.51-.49,2.84-1.28,3.95-2.43,1.21-1.25,1.03-2.6-.5-3.45-.41-.23-.89-.36-1.36-.46-1.57-.32-3.17-.19-4.74-.05-2.38,.21-4.74,.56-7.12,.76-1.13,.1-5.05,.02-6.42-.36-1.53-.43-3.07-1.26-3.61-1.68-3.45-2.67-3.43-7.62-.4-10.68,1.43-1.44,2.92-2.82,4.72-3.81,.45-.25,.45-.36,.05-.69-2.74-2.29-4.38-5.23-4.82-8.78-.49-3.97,.62-7.5,3.23-10.51,.77-.89,1.61-1.66,2.5-2.32C31.17,.91,34.51,.4,36.06,.19c1.54-.21,3.81-.34,6.46,.18,0,0,3.3,.64,6.34,2.43Zm-3.78,9.68c.04-3.9-3.99-6.8-7.78-5.93-1.45,.34-2.56,1.25-3.45,2.42-1.06,1.38-1.55,2.95-1.35,4.72,.17,1.44,.83,2.67,1.64,3.83,1.29,1.83,2.59,3.66,3.87,5.49,.46,.66,.83,.67,1.29,.01,1.33-1.88,2.67-3.76,4-5.65,1.01-1.43,1.8-2.95,1.78-4.9Z"/>
  <g class="cls-1">
    <g>
      <path class="cls-3" d="M127.89,37.21c0,1.67,.02,3.34,0,5.01-.02,1.64-.9,2.28-2.42,1.68-1.39-.55-2.63-.55-4.11-.06-5.91,1.93-11.65,1.71-16.82-2.14-3.36-2.5-5.28-5.95-6.21-9.97-1.09-4.73-.98-9.43,1.03-13.89,2.8-6.21,7.64-9.92,14.54-10.86,4.07-.56,7.95,.25,11.8,1.4,.63,.19,1.1,.58,1.13,1.32,.11,3.12,.27,6.24,.31,9.36,.01,1.12-1.09,1.69-1.97,.98-.95-.77-1.78-1.73-2.49-2.72-.74-1.03-1.21-2.23-1.9-3.29-3.19-4.91-8.81-4.96-12.14-.14-1.55,2.24-2.26,4.75-2.43,7.4-.27,4.37-.15,8.72,1.44,12.89,.91,2.38,2.19,4.51,4.32,6.04,1.42,1.02,3.01,1.46,4.76,1.35,1.99-.12,3.24-1.17,3.4-3.16,.13-1.59,0-3.2-.11-4.8-.1-1.54-1.06-2.59-2.23-3.5-.39-.3-.81-.58-1.17-.92-.83-.78-.66-1.66,.41-2.1,.28-.12,.6-.17,.91-.17,3.47-.01,6.95-.01,10.42,0,.36,0,.76,.07,1.09,.22,.94,.41,1.15,1.45,.47,2.21-.19,.21-.37,.44-.61,.57-1.26,.67-1.51,1.73-1.43,3.05,.09,1.42,.02,2.85,.02,4.27h0Z"/>
      <path class="cls-3" d="M147.54,41.34c-.47,.49-.81,.87-1.18,1.22-2.64,2.55-6.96,3.19-10.17,1.54-1.89-.97-2.86-2.54-3.04-4.58-.13-1.51-.17-3.02-.19-4.54-.03-3.28-.03-6.56,0-9.84,.01-1.14-.45-1.96-1.39-2.56-.24-.15-.54-.25-.7-.46-.29-.39-.73-.87-.68-1.26,.06-.4,.56-.95,.97-1.07,2.59-.75,5.27-1,7.96-.89,.84,.03,.99,.69,.99,1.41,0,4.27,0,8.54,0,12.81,0,1.21-.01,2.41,.02,3.62,.06,2.11,.95,3.34,2.5,3.49,2.24,.22,4.07-.88,4.55-2.84,.21-.83,.34-1.71,.35-2.56,.04-3.44,.04-6.87,.03-10.31,0-1.33-.84-2.12-1.86-2.82-.32-.22-.75-.67-.7-.93,.08-.37,.51-.87,.87-.93,2.02-.38,4.04-.79,6.08-.92,3.23-.2,2.82-.05,2.83,2.67,.01,4.92,0,9.84,.02,14.76,0,.86,.02,1.74,.18,2.59,.1,.55,.39,1.1,.73,1.56,.42,.57,.97,1.04,1.46,1.57,.58,.62,.55,1.09-.22,1.46-.61,.29-1.28,.55-1.95,.62-1.92,.2-3.85,.34-5.78,.43-1.11,.05-1.52-.38-1.62-1.47-.05-.54-.05-1.09-.09-1.77h0Z"/>
      <path class="cls-3" d="M247.35,35.45c1.13-3.65,2.3-7.29,3.37-10.95,.58-1.98,.37-2.29-1.35-3.42-.34-.22-.73-.74-.69-1.06,.06-.4,.51-.78,.86-1.09,.16-.15,.47-.18,.71-.18,1.91-.02,3.82-.07,5.72,.03,.5,.03,1.22,.43,1.39,.84,.17,.4-.07,1.2-.42,1.55-1.78,1.83-2.93,4-3.76,6.35-1.98,5.58-3.81,11.22-5.88,16.77-.95,2.53-2.15,5-3.56,7.31-1.51,2.46-3.79,4.11-6.83,4.37-1.74,.15-3.35-.31-4.73-1.4-1.5-1.19-1.95-2.8-1.54-4.58,.41-1.8,1.56-3.09,3.33-3.73,.88-.32,1.6,.03,2.06,.83,.41,.72,.74,1.49,1.18,2.21,.77,1.27,2.02,1.58,3.28,.78,1.31-.82,2.15-2.06,2.71-3.46,.16-.39,.02-.98-.16-1.41-.94-2.25-1.9-4.5-2.93-6.71-1.96-4.21-3.89-8.43-5.98-12.57-.83-1.64-2-3.12-3.11-4.6-.82-1.08-.56-2.12,.75-2.48,.09-.02,.18-.07,.27-.07,3.37,.02,6.75-.07,10.12,.1,1.62,.08,1.89,1.03,.84,2.22-1.1,1.24-1.07,2.68-.65,4.11,1.06,3.64,2.92,6.92,4.67,10.25,.11,0,.21,0,.32-.01h0Z"/>
      <path class="cls-3" d="M165.09,31.12c.06,2.35,.4,4.47,1.87,6.22,2.42,2.88,6.45,3.14,9.32,.64,.61-.53,1.21-1.09,1.89-1.52,.31-.2,.97-.31,1.15-.13,.26,.26,.44,.88,.31,1.22-1.36,3.57-3.65,6.39-7.57,7.16-7.24,1.44-12.66-2.16-13.93-9.47-.61-3.5-.42-6.96,1.12-10.25,2.51-5.33,8.46-7.92,14.1-6.13,3.58,1.14,5.87,4.25,6.24,8.12,.32,3.37-.67,4.29-3.9,4.17-3.15-.12-6.32-.03-9.48-.03h-1.12Zm7.83-3.01c-.03-1.92-.25-3.71-1.29-5.29-1.15-1.75-3.42-1.98-4.79-.44-1.44,1.62-1.6,3.64-1.73,5.73h7.81Z"/>
      <path class="cls-3" d="M190.44,45.11c-1.16-.21-2.68-.38-4.15-.76-3.1-.79-4.69-2.87-4.89-6.01-.05-.83-.11-1.67,0-2.48,.05-.36,.48-.87,.82-.95,.36-.08,.95,.16,1.2,.45,.53,.63,.92,1.39,1.35,2.11,.89,1.48,1.89,2.89,3.41,3.75,.77,.44,1.75,.69,2.64,.69,1.85,0,2.86-1.64,2.26-3.38-.46-1.33-1.5-2.19-2.58-2.99-2.12-1.58-4.35-3.02-6.41-4.68-3-2.42-3.58-6.22-1.52-9.21,1.23-1.79,3.05-2.7,5.14-3.12,3.07-.62,6.02,.11,8.93,.97,.53,.16,1.14,.78,1.3,1.31,.45,1.5,.73,3.05,.99,4.59,.11,.65-.02,1.35-.78,1.62-.77,.27-1.08-.36-1.49-.83-1.14-1.31-2.26-2.64-3.5-3.85-.78-.76-1.79-1.25-2.96-1.18-1.49,.08-2.36,1.32-1.9,2.72,.44,1.33,1.46,2.23,2.55,3.01,2.08,1.48,4.25,2.82,6.34,4.3,2.72,1.92,3.85,4.53,2.97,7.77-.88,3.21-3.07,5.16-6.39,5.79-.98,.19-1.98,.22-3.35,.36h0Z"/>
      <path class="cls-3" d="M229.33,23.8c0,5.01,.02,10.02-.01,15.03,0,1.05,.27,1.93,.98,2.7,.5,.54,1.09,1.1,.7,1.96-.38,.83-1.17,1-1.97,1.01-2.25,.03-4.5,0-6.75,0-.22,0-.47,0-.64-.1-.46-.27-1.11-.52-1.26-.92-.14-.41,.08-1.18,.42-1.47,1-.88,1.2-1.92,1.2-3.16-.03-8.14-.04-16.27,0-24.41,0-1.54-.5-2.67-1.82-3.49-.93-.58-.98-1.43,0-1.84,2.37-.99,4.79-1.9,7.25-2.64,1.21-.36,1.89,.4,1.89,1.73,0,5.2,0,10.39,0,15.59h0Z"/>
      <path class="cls-3" d="M211.98,18.72c1.94,0,3.82-.03,5.69,.02,.44,.01,.88,.3,1.32,.45-.22,.47-.31,1.09-.67,1.39-1.26,1.05-2.83,1.38-4.44,1.49-.62,.04-1.24,0-1.94,0-.02,.32-.06,.59-.06,.86,0,4.3,0,8.6,.01,12.9,0,.77,.07,1.55,.18,2.31,.25,1.72,1.71,2.44,3.25,1.58,.62-.35,1.12-.91,1.74-1.25,.41-.22,.94-.21,1.42-.3,.1,.49,.39,1.04,.26,1.45-.76,2.35-2.16,4.22-4.65,4.94-2.41,.7-4.85,.77-7-.76-1.7-1.21-2.54-3-2.57-5.04-.08-4.76-.05-9.53-.06-14.3,0-.28,.01-.56,0-.84-.11-1.48-.39-1.74-1.87-1.84-.31-.02-.62-.04-.94-.07-.74-.06-1.26-.42-1.34-1.18-.08-.72,.29-1.23,.98-1.51,.84-.33,1.7-.62,2.5-1.03,2.24-1.17,3.97-2.88,5.24-5.04,.25-.43,.43-.93,.78-1.26,.36-.34,1.01-.83,1.31-.7,.43,.17,.87,.82,.91,1.3,.11,1.23-.01,2.47-.03,3.71-.01,.86,0,1.72,0,2.7h0Z"/>
    </g>
  </g>
</svg>