<?xml version="1.0" encoding="UTF-8"?>
<svg id="Layer_3" data-name="Layer 3" xmlns="http://www.w3.org/2000/svg" xmlns:xlink="http://www.w3.org/1999/xlink" viewBox="0 0 1921 1081">
  <defs>
    <style>
      .cls-1 {
        clip-path: url(#clippath);
      }

      .cls-2 {
        fill: none;
      }

      .cls-3 {
        fill: #014122;
      }
    </style>
    <clipPath id="clippath">
      <rect class="cls-2" x="918.07" y="553.4" width="77.62" height="24.1"/>
    </clipPath>
  </defs>
  <g class="cls-1">
    <g>
      <path class="cls-3" d="M932.76,568.37c0,.81,0,1.62,0,2.44-.01,.8-.44,1.11-1.18,.82-.67-.27-1.28-.26-2-.03-2.87,.94-5.66,.83-8.17-1.04-1.63-1.22-2.56-2.89-3.02-4.84-.53-2.3-.47-4.58,.5-6.75,1.36-3.02,3.71-4.82,7.06-5.28,1.98-.27,3.86,.12,5.73,.68,.31,.09,.54,.28,.55,.64,.05,1.51,.13,3.03,.15,4.55,0,.55-.53,.82-.95,.47-.46-.37-.86-.84-1.21-1.32-.36-.5-.59-1.08-.92-1.6-1.55-2.38-4.28-2.41-5.9-.07-.75,1.09-1.1,2.31-1.18,3.59-.13,2.12-.07,4.23,.7,6.26,.44,1.16,1.06,2.19,2.1,2.93,.69,.5,1.46,.71,2.31,.66,.97-.06,1.57-.57,1.65-1.53,.06-.77,0-1.56-.05-2.33-.05-.75-.52-1.26-1.08-1.7-.19-.15-.39-.28-.57-.45-.4-.38-.32-.8,.2-1.02,.14-.06,.29-.08,.44-.08,1.69,0,3.37,0,5.06,0,.18,0,.37,.03,.53,.11,.46,.2,.56,.7,.23,1.08-.09,.1-.18,.22-.3,.28-.61,.33-.74,.84-.69,1.48,.04,.69,.01,1.38,0,2.07h0Z"/>
      <path class="cls-3" d="M942.31,570.38c-.23,.24-.39,.42-.57,.59-1.28,1.24-3.38,1.55-4.94,.75-.92-.47-1.39-1.24-1.48-2.23-.06-.73-.08-1.47-.09-2.2-.01-1.59-.02-3.19,0-4.78,0-.56-.22-.95-.67-1.24-.11-.07-.26-.12-.34-.22-.14-.19-.36-.42-.33-.61,.03-.2,.27-.46,.47-.52,1.26-.37,2.56-.49,3.87-.43,.41,.02,.48,.34,.48,.69,0,2.08,0,4.15,0,6.23,0,.59,0,1.17,0,1.76,.03,1.03,.46,1.62,1.21,1.7,1.09,.11,1.98-.43,2.21-1.38,.1-.4,.16-.83,.17-1.25,.02-1.67,.02-3.34,.02-5.01,0-.65-.41-1.03-.9-1.37-.15-.11-.37-.33-.34-.45,.04-.18,.25-.42,.42-.45,.98-.18,1.96-.38,2.96-.44,1.57-.09,1.37-.03,1.37,1.3,0,2.39,0,4.78,.01,7.17,0,.42,.01,.85,.09,1.26,.05,.27,.19,.53,.35,.76,.2,.28,.47,.51,.71,.76,.28,.3,.26,.53-.11,.71-.3,.14-.62,.27-.95,.3-.93,.1-1.87,.17-2.81,.21-.54,.02-.74-.19-.78-.72-.02-.26-.03-.53-.04-.86h0Z"/>
      <path class="cls-3" d="M990.79,567.52c.55-1.77,1.12-3.54,1.64-5.32,.28-.96,.18-1.11-.66-1.66-.16-.11-.36-.36-.33-.51,.03-.19,.25-.38,.42-.53,.08-.07,.23-.09,.35-.09,.93,0,1.86-.03,2.78,.01,.24,.01,.59,.21,.68,.41,.08,.2-.03,.58-.2,.75-.87,.89-1.42,1.95-1.83,3.09-.96,2.71-1.85,5.45-2.86,8.15-.46,1.23-1.05,2.43-1.73,3.55-.73,1.2-1.84,1.99-3.32,2.12-.85,.07-1.63-.15-2.3-.68-.73-.58-.94-1.36-.75-2.23,.2-.87,.76-1.5,1.62-1.81,.43-.15,.78,.01,1,.4,.2,.35,.36,.73,.57,1.07,.38,.62,.98,.77,1.6,.38,.64-.4,1.05-1,1.32-1.68,.08-.19,0-.48-.08-.68-.46-1.09-.92-2.18-1.42-3.26-.95-2.04-1.89-4.09-2.91-6.1-.4-.8-.97-1.52-1.51-2.23-.4-.52-.27-1.03,.36-1.21,.04-.01,.09-.04,.13-.04,1.64,0,3.28-.03,4.92,.05,.79,.04,.92,.5,.41,1.08-.53,.6-.52,1.3-.32,2,.52,1.77,1.42,3.36,2.27,4.98,.05,0,.1,0,.16,0h0Z"/>
      <path class="cls-3" d="M950.83,565.41c.03,1.14,.19,2.17,.91,3.02,1.17,1.4,3.13,1.52,4.53,.31,.3-.26,.59-.53,.92-.74,.15-.1,.47-.15,.56-.07,.13,.13,.21,.43,.15,.59-.66,1.74-1.78,3.1-3.68,3.48-3.52,.7-6.15-1.05-6.77-4.6-.29-1.7-.21-3.38,.55-4.98,1.22-2.59,4.11-3.85,6.85-2.98,1.74,.55,2.85,2.07,3.03,3.94,.16,1.64-.33,2.09-1.89,2.02-1.53-.06-3.07-.01-4.6-.01h-.55Zm3.81-1.46c-.01-.93-.12-1.8-.62-2.57-.56-.85-1.66-.96-2.33-.21-.7,.79-.78,1.77-.84,2.78h3.79Z"/>
      <path class="cls-3" d="M963.15,572.21c-.56-.1-1.3-.18-2.02-.37-1.51-.39-2.28-1.39-2.37-2.92-.03-.4-.06-.81,0-1.21,.03-.18,.23-.42,.4-.46,.17-.04,.46,.08,.58,.22,.26,.31,.45,.68,.66,1.02,.43,.72,.92,1.4,1.66,1.82,.37,.21,.85,.34,1.28,.34,.9,0,1.39-.79,1.1-1.64-.22-.65-.73-1.06-1.25-1.45-1.03-.77-2.11-1.47-3.11-2.27-1.46-1.17-1.74-3.02-.74-4.47,.6-.87,1.48-1.31,2.49-1.52,1.49-.3,2.93,.05,4.34,.47,.26,.08,.56,.38,.63,.64,.22,.73,.35,1.48,.48,2.23,.05,.32,0,.66-.38,.79-.37,.13-.52-.18-.72-.4-.55-.64-1.1-1.28-1.7-1.87-.38-.37-.87-.61-1.44-.57-.73,.04-1.15,.64-.92,1.32,.21,.65,.71,1.08,1.24,1.46,1.01,.72,2.07,1.37,3.08,2.09,1.32,.93,1.87,2.2,1.44,3.77-.43,1.56-1.49,2.51-3.1,2.81-.47,.09-.96,.11-1.63,.18h0Z"/>
      <path class="cls-3" d="M982.04,561.86c0,2.43,0,4.87,0,7.3,0,.51,.13,.94,.48,1.31,.24,.26,.53,.54,.34,.95-.18,.4-.57,.48-.95,.49-1.09,.02-2.19,0-3.28,0-.11,0-.23,0-.31-.05-.22-.13-.54-.25-.61-.45-.07-.2,.04-.57,.2-.72,.49-.43,.58-.93,.58-1.53-.01-3.95-.02-7.9,0-11.86,0-.75-.24-1.3-.89-1.7-.45-.28-.48-.69,0-.89,1.15-.48,2.33-.92,3.52-1.28,.59-.18,.92,.19,.92,.84,0,2.52,0,5.05,0,7.57h0Z"/>
      <path class="cls-3" d="M973.61,559.39c.94,0,1.85-.01,2.76,.01,.22,0,.43,.14,.64,.22-.11,.23-.15,.53-.33,.68-.61,.51-1.37,.67-2.16,.73-.3,.02-.6,0-.94,0-.01,.16-.03,.29-.03,.42,0,2.09,0,4.18,0,6.27,0,.37,.04,.75,.09,1.12,.12,.84,.83,1.19,1.58,.77,.3-.17,.54-.44,.85-.61,.2-.11,.46-.1,.69-.15,.05,.24,.19,.5,.13,.7-.37,1.14-1.05,2.05-2.26,2.4-1.17,.34-2.35,.37-3.4-.37-.83-.59-1.23-1.46-1.25-2.45-.04-2.31-.02-4.63-.03-6.95,0-.14,0-.27,0-.41-.05-.72-.19-.85-.91-.89-.15,0-.3-.02-.45-.03-.36-.03-.61-.21-.65-.57-.04-.35,.14-.6,.48-.73,.41-.16,.83-.3,1.21-.5,1.09-.57,1.93-1.4,2.54-2.45,.12-.21,.21-.45,.38-.61,.18-.17,.49-.4,.64-.34,.21,.08,.42,.4,.44,.63,.05,.6,0,1.2-.01,1.8,0,.42,0,.83,0,1.31h0Z"/>
    </g>
  </g>
  <path class="cls-3" d="M969.92,505.59c.45,.26,1.72,1.14,2.35,1.82,1.09,1.18,1.79,2.63,2.18,4.26,1.01,4.17-.77,8.37-4.44,10.72-1.86,1.19-4.41,1.82-6.59,2.02-3.16,.3-5.19,.04-6.71,.87-.63,.34-1.21,1.08-.94,1.55,.53,.94,2.05,.84,2.65,.86,1.35,.05,2.7,0,4.05-.03,1.83-.04,4.26-.26,6.08-.1,1.22,.1,2.98,.48,4.55,1.49,1.87,1.21,2.79,2.96,2.87,5.18,.09,2.47-.86,4.55-2.47,6.34-2.04,2.25-4.66,3.46-7.55,4.15-2.54,.61-5.12,.72-7.71,.5-2.21-.19-4.35-.69-6.3-1.81-1.26-.72-2.3-1.67-3.04-2.95-.43-.74-.34-1.66,.03-2.39,.21-.42,.97-1.31,1.66-1.72,1.32-.79,2.27-.95,3.82-1,.66-.02,1.27,.07,1.63,.19,.63,.2,.65,.61,.64,.61-.74,.25-1.14,.54-1.36,.83-.27,.37-.2,.63,.11,.96,.31,.34,.69,.65,1.09,.86,1.03,.54,2.17,.75,3.32,.87,1.79,.19,3.56,.06,5.29-.5,1.12-.36,2.12-.96,2.95-1.81,.91-.94,.77-1.94-.37-2.58-.31-.17-.67-.27-1.01-.34-1.18-.24-2.37-.14-3.54-.04-1.77,.15-3.54,.41-5.31,.57-.84,.07-3.77,.02-4.79-.27-1.15-.32-2.29-.94-2.69-1.25-2.57-2-2.56-5.69-.3-7.97,1.07-1.08,2.18-2.11,3.52-2.84,.33-.18,.34-.27,.04-.52-2.05-1.71-3.27-3.9-3.6-6.56-.37-2.96,.46-5.6,2.41-7.85,.58-.67,1.2-1.24,1.87-1.73,2.42-1.79,4.92-2.17,6.07-2.33,1.15-.16,2.84-.25,4.82,.13,0,0,2.46,.48,4.74,1.81Zm-2.82,7.23c.03-2.91-2.98-5.08-5.81-4.43-1.08,.25-1.91,.94-2.58,1.81-.79,1.03-1.16,2.2-1.01,3.52,.12,1.08,.62,1.99,1.23,2.86,.96,1.37,1.93,2.73,2.89,4.1,.34,.49,.62,.5,.97,.01,.99-1.41,1.99-2.81,2.98-4.22,.75-1.07,1.34-2.2,1.33-3.66Z"/>
</svg>