<?xml version="1.0" encoding="UTF-8"?>
<svg id="Layer_2" data-name="Layer 2" xmlns="http://www.w3.org/2000/svg" viewBox="0 0 75.08 56">
  <defs>
    <style>
      .cls-1 {
        fill: #014122;
      }
    </style>
  </defs>
  <path class="cls-1" d="M49.01,2.79c.6,.35,2.3,1.52,3.15,2.43,1.47,1.58,2.4,3.52,2.92,5.71,1.35,5.58-1.03,11.21-5.95,14.35-2.49,1.59-5.91,2.43-8.82,2.71-4.23,.4-6.96,.06-8.99,1.16-.85,.46-1.62,1.44-1.26,2.08,.71,1.26,2.75,1.12,3.55,1.15,1.81,.07,3.62,0,5.43-.04,2.45-.06,5.7-.35,8.14-.14,1.63,.14,3.99,.64,6.09,2,2.51,1.62,3.74,3.97,3.84,6.93,.12,3.31-1.15,6.1-3.31,8.49-2.73,3.01-6.24,4.63-10.1,5.56-3.4,.81-6.85,.97-10.32,.67-2.96-.26-5.82-.92-8.44-2.42-1.69-.97-3.08-2.23-4.07-3.95-.57-.99-.46-2.22,.04-3.2,.29-.56,1.3-1.75,2.22-2.3,1.77-1.06,3.04-1.27,5.12-1.34,.88-.03,1.7,.1,2.18,.25,.84,.27,.86,.81,.86,.82-.99,.34-1.53,.73-1.82,1.12-.36,.49-.26,.84,.14,1.28,.42,.45,.92,.86,1.46,1.15,1.38,.73,2.91,1,4.44,1.16,2.4,.25,4.77,.08,7.08-.66,1.51-.49,2.84-1.28,3.95-2.43,1.21-1.25,1.03-2.6-.5-3.45-.41-.23-.89-.36-1.36-.46-1.57-.32-3.17-.19-4.74-.05-2.38,.21-4.74,.56-7.12,.76-1.13,.1-5.05,.02-6.42-.36-1.53-.43-3.07-1.26-3.61-1.68-3.45-2.67-3.43-7.62-.4-10.68,1.43-1.44,2.92-2.82,4.72-3.81,.45-.25,.45-.36,.05-.69-2.74-2.29-4.38-5.23-4.82-8.78-.49-3.97,.62-7.5,3.23-10.51,.77-.89,1.61-1.66,2.5-2.32C31.32,.91,34.66,.4,36.21,.19c1.54-.21,3.81-.34,6.46,.18,0,0,3.3,.64,6.34,2.43Zm-3.78,9.68c.04-3.9-3.99-6.8-7.78-5.93-1.45,.34-2.56,1.25-3.45,2.42-1.06,1.38-1.55,2.95-1.35,4.72,.17,1.44,.83,2.67,1.64,3.83,1.29,1.83,2.59,3.66,3.87,5.49,.46,.66,.83,.67,1.29,.01,1.33-1.88,2.67-3.76,4-5.65,1.01-1.43,1.8-2.95,1.78-4.9Z"/>
</svg>