<?xml version="1.0" encoding="UTF-8"?>
<svg id="Layer_3" data-name="Layer 3" xmlns="http://www.w3.org/2000/svg" xmlns:xlink="http://www.w3.org/1999/xlink" viewBox="0 0 4865.5 1235.92">
  <defs>
    <style>
      .cls-1 {
        clip-path: url(#clippath);
      }

      .cls-2 {
        fill: none;
      }

      .cls-3 {
        fill: #014122;
      }
    </style>
    <clipPath id="clippath">
      <rect class="cls-2" x="1388.1" y="156.17" width="3477.4" height="1079.74"/>
    </clipPath>
  </defs>
  <path class="cls-3" d="M636.71,61.63c13.25,7.78,50.85,33.65,69.47,53.72,32.35,34.84,52.88,77.76,64.54,126.02,29.75,123.11-22.7,247.46-131.28,316.76-54.96,35.07-130.36,53.69-194.71,59.84-93.26,8.91-153.51,1.26-198.42,25.62-18.69,10.14-35.83,31.79-27.85,45.88,15.71,27.71,60.68,24.78,78.29,25.43,39.85,1.45,79.83,.06,119.74-.84,54.1-1.22,125.91-7.68,179.74-3.05,36.02,3.1,88.1,14.1,134.45,44.07,55.41,35.82,82.46,87.52,84.81,152.99,2.62,73.02-25.31,134.56-73.03,187.26-60.17,66.44-137.7,102.28-223,122.71-75.03,17.96-151.23,21.39-227.8,14.73-65.37-5.69-128.52-20.41-186.3-53.45-37.32-21.34-67.89-49.31-89.84-87.26-12.58-21.75-10.1-49.06,.95-70.55,6.32-12.29,28.68-38.62,48.96-50.82,39-23.46,67.19-28.03,113.01-29.65,19.47-.68,37.5,2.13,48.17,5.56,18.52,5.97,19.08,17.98,18.95,18.03-21.76,7.49-33.68,16.01-40.08,24.64-8.03,10.82-5.78,18.6,3.18,28.25,9.22,9.93,20.27,19.07,32.19,25.33,30.51,16.04,64.12,22.15,97.98,25.71,52.96,5.56,105.3,1.83,156.27-14.67,33.22-10.75,62.58-28.25,87.07-53.53,26.8-27.67,22.72-57.48-11.07-76.12-9.1-5.02-19.67-7.98-29.93-10.08-34.75-7.09-69.92-4.22-104.72-1.19-52.43,4.57-104.6,12.26-157.03,16.8-24.84,2.15-111.53,.54-141.7-8-33.88-9.6-67.67-27.8-79.62-37.07-76.08-58.99-75.81-168.13-8.81-235.61,31.61-31.84,64.4-62.27,104.09-84.01,9.89-5.41,9.96-7.88,1.09-15.3-60.52-50.59-96.62-115.35-106.28-193.74-10.8-87.57,13.67-165.45,71.24-231.88,17.07-19.69,35.52-36.69,55.22-51.24C246.2,20.01,320,8.83,354.15,4.1c34.03-4.71,84.06-7.51,142.58,3.9,0,0,72.82,14.21,139.97,53.62Zm-83.38,213.54c.84-86.03-88.11-150.12-171.76-130.78-32.03,7.4-56.45,27.69-76.13,53.38-23.39,30.55-34.28,65.16-29.82,104.1,3.65,31.88,18.26,58.95,36.2,84.52,28.41,40.49,57.12,80.76,85.49,121.27,10.13,14.46,18.37,14.72,28.55,.32,29.37-41.55,58.88-83.01,88.2-124.6,22.27-31.59,39.66-65.09,39.27-108.21Z"/>
  <g class="cls-1">
    <g>
      <path class="cls-3" d="M2046.45,826.94c-.02,36.37,.34,72.75-.13,109.1-.47,35.74-19.68,49.6-52.68,36.52-30.18-11.98-57.23-11.87-89.49-1.32-128.6,42.02-253.46,37.14-366.01-46.67-73.15-54.49-114.9-129.55-135.08-216.97-23.78-103.03-21.25-205.25,22.52-302.29,60.98-135.2,166.21-215.85,316.38-236.42,88.48-12.12,173.06,5.54,256.83,30.45,13.78,4.1,24.02,12.7,24.58,28.69,2.4,67.86,5.82,135.73,6.72,203.62,.32,24.44-23.76,36.67-42.78,21.26-20.63-16.73-38.75-37.54-54.26-59.16-16.01-22.32-26.32-48.56-41.36-71.66-69.48-106.83-191.69-107.85-264.24-3.1-33.7,48.65-49.26,103.33-52.85,160.94-5.9,95.06-3.18,189.69,31.32,280.48,19.71,51.85,47.59,98.17,93.91,131.46,30.91,22.21,65.6,31.75,103.59,29.41,43.23-2.68,70.45-25.48,73.93-68.71,2.79-34.57-.11-69.73-2.34-104.51-2.15-33.47-23.07-56.46-48.49-76.06-8.59-6.63-17.67-12.72-25.52-20.11-18.14-17.05-14.45-36.03,8.89-45.76,6.08-2.53,13.16-3.69,19.77-3.72,75.58-.26,151.16-.3,226.74,.04,7.94,.04,16.49,1.55,23.7,4.71,20.52,8.96,25.07,31.53,10.32,48.18-4.03,4.54-8.13,9.64-13.33,12.42-27.33,14.59-32.93,37.69-31.08,66.31,1.97,30.85,.45,61.94,.43,92.92l.02-.04Z"/>
      <path class="cls-3" d="M2474.1,916.83c-10.17,10.6-17.62,18.92-25.65,26.65-57.55,55.53-151.48,69.46-221.42,33.51-41.11-21.13-62.27-55.34-66.2-99.78-2.9-32.79-3.8-65.8-4.08-98.72-.6-71.39-.73-142.8,0-214.19,.26-24.87-9.9-42.55-30.22-55.63-5.13-3.29-11.74-5.46-15.13-9.98-6.38-8.49-15.95-19.03-14.79-27.46,1.2-8.77,12.17-20.58,21.21-23.21,56.45-16.39,114.6-21.85,173.29-19.47,18.29,.74,21.64,15.12,21.59,30.77-.17,92.96-.11,185.91-.09,278.87,0,26.27-.32,52.55,.43,78.8,1.31,45.93,20.78,72.64,54.41,75.98,48.83,4.84,88.48-19.2,99.13-61.9,4.53-18.13,7.3-37.14,7.53-55.78,.97-74.77,.77-149.53,.73-224.3,0-28.92-18.27-46.14-40.38-61.39-6.93-4.78-16.4-14.61-15.22-20.17,1.7-7.96,11.16-18.84,18.89-20.28,43.85-8.22,87.99-17.22,132.42-19.92,70.32-4.25,61.37-1.15,61.52,58.16,.26,107.11,.06,214.19,.45,321.3,.07,18.81,.45,37.9,3.84,56.29,2.21,11.93,8.59,23.91,15.88,33.89,9.12,12.42,21.19,22.72,31.81,34.08,12.64,13.5,11.87,23.83-4.74,31.81-13.27,6.37-27.86,11.96-42.35,13.48-41.84,4.42-83.87,7.49-125.89,9.34-24.21,1.06-33.04-8.33-35.16-32.09-1.05-11.79-1.18-23.63-1.89-38.62l.06-.04Z"/>
      <path class="cls-3" d="M4646.21,788.78c24.58-79.42,49.99-158.62,73.44-238.35,12.64-43,8.05-49.75-29.42-74.41-7.37-4.84-15.99-16.01-15.01-23,1.24-8.73,11.16-16.88,18.69-23.8,3.48-3.19,10.24-3.93,15.53-3.97,41.52-.34,83.12-1.51,124.54,.55,10.88,.55,26.58,9.37,30.33,18.37,3.65,8.79-1.56,26.03-9.05,33.7-38.81,39.73-63.75,87.14-81.82,138.24-43.05,121.54-82.89,244.24-128.04,364.97-20.59,55.04-46.83,108.91-77.52,159.11-32.77,53.62-82.55,89.35-148.62,95.11-37.89,3.29-72.95-6.75-102.88-30.51-32.61-25.88-42.33-61.01-33.55-99.72,8.88-39.11,33.98-67.14,72.52-81.07,19.13-6.9,34.92,.55,44.83,18.05,8.96,15.78,16.21,32.53,25.63,48.01,16.85,27.73,43.92,34.29,71.49,16.97,28.55-17.94,46.87-44.91,58.93-75.32,3.38-8.56,.38-21.38-3.51-30.68-20.51-48.97-41.4-97.83-63.78-145.99-42.55-91.56-84.66-183.38-130.19-273.48-18.01-35.65-43.43-67.93-67.75-100.06-17.75-23.44-12.29-46.19,16.34-54.02,1.97-.53,3.92-1.59,5.87-1.59,73.44,.34,146.96-1.42,220.24,2.14,35.23,1.72,41.2,22.42,18.29,48.37-23.88,27.07-23.29,58.35-14.21,89.55,23.09,79.16,63.58,150.64,101.7,223.09,2.35-.09,4.67-.19,7-.28l.02,.02Z"/>
      <path class="cls-3" d="M2856.08,694.36c1.24,51.09,8.65,97.21,40.76,135.43,52.63,62.64,140.36,68.25,202.89,13.97,13.29-11.53,26.36-23.61,41.09-33.04,6.68-4.29,21.17-6.71,25.02-2.93,5.75,5.65,9.51,19.13,6.7,26.52-29.6,77.78-79.52,138.98-164.76,155.9-157.64,31.28-275.61-47.01-303.19-206.12-13.2-76.1-9.19-151.42,24.47-223.04,54.57-116.09,184.05-172.44,306.83-133.48,77.9,24.72,127.71,92.52,135.73,176.65,6.97,73.39-14.58,93.45-84.86,90.69-68.64-2.7-137.49-.57-206.24-.57h-24.47l.02,.02Zm170.48-65.45c-.6-41.72-5.4-80.71-27.99-115.11-25.07-38.16-74.42-43.11-104.32-9.56-31.34,35.19-34.82,79.31-37.67,124.65h169.96l.03,.02Z"/>
      <path class="cls-3" d="M3407.68,998.94c-25.2-4.48-58.31-8.28-90.27-16.46-67.48-17.26-102.16-62.49-106.37-130.8-1.13-18.01-2.48-36.35,.06-54.02,1.13-7.94,10.45-18.9,17.94-20.64,7.75-1.83,20.74,3.4,26.18,9.87,11.62,13.8,20.07,30.26,29.41,45.84,19.26,32.17,41.22,62.85,74.18,81.69,16.69,9.53,38.14,15.03,57.45,15.01,40.2-.04,62.26-35.59,49.13-73.66-10-29.03-32.66-47.65-56.07-65.04-46.19-34.34-94.68-65.81-139.4-101.88-65.21-52.58-77.8-135.43-33.12-200.34,26.79-38.92,66.44-58.73,111.75-67.91,66.86-13.53,131.09,2.42,194.35,21.06,11.61,3.42,24.91,17.01,28.39,28.56,9.83,32.57,15.8,66.38,21.53,99.99,2.43,14.18-.35,29.45-16.91,35.25-16.78,5.88-23.48-7.9-32.39-18.11-24.82-28.45-49.18-57.44-76.12-83.83-16.93-16.6-38.93-27.12-64.44-25.69-32.5,1.83-51.43,28.71-41.32,59.29,9.59,29.01,31.76,48.59,55.48,65.4,45.27,32.11,92.54,61.47,137.87,93.47,59.16,41.77,83.87,98.59,64.64,169.02-19.09,69.9-66.9,112.25-139,126.03-21.23,4.06-43.13,4.76-72.93,7.86l-.05,.04Z"/>
      <path class="cls-3" d="M4254.07,535.18c0,109.06,.33,218.12-.29,327.18-.13,22.83,5.8,41.9,21.37,58.86,10.78,11.72,23.71,23.99,15.24,42.55-8.26,18.09-25.56,21.7-42.78,21.96-48.99,.7-97.99,.19-146.97,0-4.73,0-10.24,.13-14-2.08-9.97-5.86-24.25-11.25-27.36-20.09-3.11-8.9,1.7-25.59,9.11-32.04,21.86-19.05,26.1-41.83,26.02-68.69-.6-177.05-.78-354.1,.14-531.16,.17-33.59-10.81-58.08-39.66-76.02-20.32-12.63-21.34-31.11,.06-40.03,51.62-21.57,104.27-41.34,157.88-57.42,26.44-7.94,41.13,8.62,41.17,37.73,.13,113.09,.06,226.19,.06,339.28l-.02-.04Z"/>
      <path class="cls-3" d="M3876.48,424.62c42.24,0,83.06-.64,123.84,.47,9.64,.25,19.13,6.43,28.68,9.87-4.72,10.3-6.78,23.72-14.66,30.32-27.45,22.93-61.58,30.02-96.57,32.51-13.47,.96-27.07,.15-42.21,.15-.52,7.03-1.35,12.83-1.35,18.62-.05,93.62-.17,187.22,.24,280.85,.06,16.77,1.57,33.66,3.97,50.26,5.41,37.52,37.25,53.19,70.75,34.38,13.45-7.56,24.29-19.79,37.85-27.12,8.89-4.8,20.53-4.59,30.92-6.62,2.11,10.57,8.5,22.53,5.61,31.53-16.53,51.11-46.92,91.73-101.21,107.42-52.46,15.16-105.48,16.8-152.43-16.54-37.09-26.33-55.31-65.23-56.04-109.59-1.7-103.69-1.03-207.42-1.32-311.12,0-6.05,.29-12.15-.16-18.18-2.37-32.13-8.38-37.97-40.67-40.05-6.78-.45-13.59-.93-20.37-1.51-16.16-1.38-27.45-9.22-29.22-25.65-1.67-15.78,6.21-26.86,21.39-32.87,18.24-7.2,37.04-13.46,54.32-22.51,48.65-25.5,86.32-62.66,113.94-109.78,5.45-9.3,9.45-20.17,17.02-27.33,7.92-7.5,22.09-17.96,28.55-15.31,9.27,3.8,18.86,17.94,19.77,28.39,2.32,26.69-.25,53.77-.6,80.69-.24,18.69-.05,37.35-.05,58.67v.04Z"/>
    </g>
  </g>
</svg>