<?xml version="1.0" encoding="UTF-8"?>
<svg id="Layer_2" data-name="Layer 2" xmlns="http://www.w3.org/2000/svg" xmlns:xlink="http://www.w3.org/1999/xlink" viewBox="0 0 1921 1081">
  <defs>
    <style>
      .cls-1 {
        clip-path: url(#clippath);
      }

      .cls-2 {
        fill: none;
      }

      .cls-3 {
        fill: #014122;
      }
    </style>
    <clipPath id="clippath">
      <rect class="cls-2" x="930.25" y="529.1" width="91.46" height="28.4"/>
    </clipPath>
  </defs>
  <g class="cls-1">
    <g>
      <path class="cls-3" d="M947.57,546.74c0,.96,0,1.91,0,2.87-.01,.94-.52,1.3-1.39,.96-.79-.31-1.51-.31-2.35-.03-3.38,1.11-6.67,.98-9.63-1.23-1.92-1.43-3.02-3.41-3.55-5.71-.63-2.71-.56-5.4,.59-7.95,1.6-3.56,4.37-5.68,8.32-6.22,2.33-.32,4.55,.15,6.75,.8,.36,.11,.63,.33,.65,.75,.06,1.78,.15,3.57,.18,5.36,0,.64-.62,.96-1.13,.56-.54-.44-1.02-.99-1.43-1.56-.42-.59-.69-1.28-1.09-1.88-1.83-2.81-5.04-2.84-6.95-.08-.89,1.28-1.3,2.72-1.39,4.23-.16,2.5-.08,4.99,.82,7.38,.52,1.36,1.25,2.58,2.47,3.46,.81,.58,1.73,.83,2.72,.77,1.14-.07,1.85-.67,1.94-1.81,.07-.91,0-1.83-.06-2.75-.06-.88-.61-1.48-1.28-2-.23-.17-.46-.33-.67-.53-.48-.45-.38-.95,.23-1.2,.16-.07,.35-.1,.52-.1,1.99,0,3.98,0,5.96,0,.21,0,.43,.04,.62,.12,.54,.24,.66,.83,.27,1.27-.11,.12-.21,.25-.35,.33-.72,.38-.87,.99-.82,1.74,.05,.81,.01,1.63,.01,2.44h0Z"/>
      <path class="cls-3" d="M958.81,549.11c-.27,.28-.46,.5-.67,.7-1.51,1.46-3.98,1.83-5.82,.88-1.08-.56-1.64-1.46-1.74-2.62-.08-.86-.1-1.73-.11-2.6-.02-1.88-.02-3.76,0-5.63,0-.65-.26-1.12-.79-1.46-.13-.09-.31-.14-.4-.26-.17-.22-.42-.5-.39-.72,.03-.23,.32-.54,.56-.61,1.48-.43,3.01-.57,4.56-.51,.48,.02,.57,.4,.57,.81,0,2.44,0,4.89,0,7.33,0,.69,0,1.38,.01,2.07,.03,1.21,.55,1.91,1.43,2,1.28,.13,2.33-.5,2.61-1.63,.12-.48,.19-.98,.2-1.47,.03-1.97,.02-3.93,.02-5.9,0-.76-.48-1.21-1.06-1.61-.18-.13-.43-.38-.4-.53,.04-.21,.29-.5,.5-.53,1.15-.22,2.31-.45,3.48-.52,1.85-.11,1.61-.03,1.62,1.53,0,2.82,0,5.63,.01,8.45,0,.49,.01,1,.1,1.48,.06,.31,.23,.63,.42,.89,.24,.33,.56,.6,.84,.9,.33,.36,.31,.63-.12,.84-.35,.17-.73,.31-1.11,.35-1.1,.12-2.21,.2-3.31,.25-.64,.03-.87-.22-.92-.84-.03-.31-.03-.62-.05-1.02h0Z"/>
      <path class="cls-3" d="M1015.94,545.74c.65-2.09,1.31-4.17,1.93-6.27,.33-1.13,.21-1.31-.77-1.96-.19-.13-.42-.42-.39-.6,.03-.23,.29-.44,.49-.63,.09-.08,.27-.1,.41-.1,1.09,0,2.19-.04,3.28,.01,.29,.01,.7,.25,.8,.48,.1,.23-.04,.68-.24,.89-1.02,1.04-1.68,2.29-2.15,3.64-1.13,3.2-2.18,6.42-3.37,9.6-.54,1.45-1.23,2.86-2.04,4.18-.86,1.41-2.17,2.35-3.91,2.5-1,.09-1.92-.18-2.71-.8-.86-.68-1.11-1.6-.88-2.62,.23-1.03,.89-1.77,1.91-2.13,.5-.18,.92,.01,1.18,.47,.24,.41,.43,.86,.67,1.26,.44,.73,1.16,.9,1.88,.45,.75-.47,1.23-1.18,1.55-1.98,.09-.23,.01-.56-.09-.81-.54-1.29-1.09-2.57-1.68-3.84-1.12-2.41-2.23-4.82-3.42-7.19-.47-.94-1.14-1.79-1.78-2.63-.47-.62-.32-1.21,.43-1.42,.05-.01,.1-.04,.15-.04,1.93,0,3.86-.04,5.79,.06,.93,.05,1.08,.59,.48,1.27-.63,.71-.61,1.53-.37,2.36,.61,2.08,1.67,3.96,2.67,5.87,.06,0,.12,0,.18,0h0Z"/>
      <path class="cls-3" d="M968.86,543.26c.03,1.34,.23,2.56,1.07,3.56,1.38,1.65,3.69,1.79,5.34,.37,.35-.3,.69-.62,1.08-.87,.18-.11,.56-.18,.66-.08,.15,.15,.25,.5,.18,.7-.78,2.05-2.09,3.66-4.33,4.1-4.15,.82-7.25-1.24-7.97-5.42-.35-2-.24-3.98,.64-5.87,1.44-3.05,4.84-4.54,8.07-3.51,2.05,.65,3.36,2.43,3.57,4.65,.18,1.93-.38,2.46-2.23,2.39-1.81-.07-3.62-.02-5.42-.02h-.64Zm4.48-1.72c-.02-1.1-.14-2.12-.74-3.03-.66-1-1.96-1.13-2.74-.25-.82,.93-.92,2.09-.99,3.28h4.47Z"/>
      <path class="cls-3" d="M983.37,551.27c-.66-.12-1.53-.22-2.37-.43-1.77-.45-2.69-1.64-2.8-3.44-.03-.47-.07-.96,0-1.42,.03-.21,.27-.5,.47-.54,.2-.05,.55,.09,.69,.26,.31,.36,.53,.8,.77,1.21,.51,.85,1.08,1.65,1.95,2.15,.44,.25,1,.4,1.51,.39,1.06,0,1.64-.94,1.29-1.94-.26-.76-.86-1.25-1.47-1.71-1.21-.9-2.49-1.73-3.67-2.68-1.72-1.38-2.05-3.56-.87-5.27,.7-1.02,1.75-1.54,2.94-1.79,1.76-.36,3.45,.06,5.11,.55,.31,.09,.66,.45,.75,.75,.26,.86,.42,1.75,.57,2.63,.06,.37,0,.77-.44,.93-.44,.15-.62-.21-.85-.48-.65-.75-1.29-1.51-2-2.2-.45-.44-1.02-.71-1.69-.68-.85,.05-1.35,.76-1.09,1.56,.25,.76,.84,1.28,1.46,1.72,1.19,.84,2.43,1.62,3.63,2.46,1.56,1.1,2.21,2.59,1.7,4.45-.5,1.84-1.76,2.95-3.66,3.31-.56,.11-1.13,.13-1.92,.21h0Z"/>
      <path class="cls-3" d="M1005.63,539.07c0,2.87,0,5.74,0,8.6,0,.6,.15,1.1,.56,1.55,.28,.31,.62,.63,.4,1.12-.22,.48-.67,.57-1.13,.58-1.29,.02-2.58,0-3.87,0-.12,0-.27,0-.37-.05-.26-.15-.64-.3-.72-.53-.08-.23,.04-.67,.24-.84,.58-.5,.69-1.1,.68-1.81-.02-4.66-.02-9.31,0-13.97,0-.88-.28-1.53-1.04-2-.53-.33-.56-.82,0-1.05,1.36-.57,2.74-1.09,4.15-1.51,.7-.21,1.08,.23,1.08,.99,0,2.97,0,5.95,0,8.92h0Z"/>
      <path class="cls-3" d="M995.7,536.16c1.11,0,2.18-.02,3.26,.01,.25,0,.5,.17,.75,.26-.12,.27-.18,.62-.39,.8-.72,.6-1.62,.79-2.54,.86-.35,.03-.71,0-1.11,0-.01,.18-.04,.34-.04,.49,0,2.46,0,4.92,0,7.39,0,.44,.04,.89,.1,1.32,.14,.99,.98,1.4,1.86,.9,.35-.2,.64-.52,1-.71,.23-.13,.54-.12,.81-.17,.06,.28,.22,.59,.15,.83-.43,1.34-1.23,2.41-2.66,2.83-1.38,.4-2.77,.44-4.01-.44-.98-.69-1.45-1.72-1.47-2.88-.04-2.73-.03-5.46-.03-8.18,0-.16,0-.32,0-.48-.06-.84-.22-1-1.07-1.05-.18-.01-.36-.02-.54-.04-.43-.04-.72-.24-.77-.67-.04-.41,.16-.71,.56-.86,.48-.19,.97-.35,1.43-.59,1.28-.67,2.27-1.65,3-2.89,.14-.24,.25-.53,.45-.72,.21-.2,.58-.47,.75-.4,.24,.1,.5,.47,.52,.75,.06,.7,0,1.41-.02,2.12,0,.49,0,.98,0,1.54h0Z"/>
    </g>
  </g>
  <path class="cls-3" d="M901.13,525.2c.36,.21,1.4,.93,1.91,1.48,.89,.96,1.45,2.14,1.78,3.47,.82,3.39-.62,6.81-3.61,8.71-1.51,.96-3.59,1.48-5.36,1.65-2.57,.25-4.22,.03-5.46,.7-.51,.28-.99,.87-.77,1.26,.43,.76,1.67,.68,2.15,.7,1.1,.04,2.2,0,3.29-.02,1.49-.03,3.46-.21,4.94-.08,.99,.09,2.42,.39,3.7,1.21,1.52,.99,2.27,2.41,2.33,4.21,.07,2.01-.7,3.7-2.01,5.15-1.66,1.83-3.79,2.81-6.13,3.38-2.06,.49-4.16,.59-6.27,.41-1.8-.16-3.54-.56-5.13-1.47-1.03-.59-1.87-1.36-2.47-2.4-.35-.6-.28-1.35,.03-1.94,.17-.34,.79-1.06,1.35-1.4,1.07-.65,1.85-.77,3.11-.82,.54-.02,1.03,.06,1.33,.15,.51,.16,.52,.49,.52,.5-.6,.21-.93,.44-1.1,.68-.22,.3-.16,.51,.09,.78,.25,.27,.56,.52,.89,.7,.84,.44,1.76,.61,2.7,.71,1.46,.15,2.9,.05,4.3-.4,.91-.3,1.72-.78,2.4-1.47,.74-.76,.63-1.58-.3-2.09-.25-.14-.54-.22-.82-.28-.96-.2-1.92-.12-2.88-.03-1.44,.13-2.88,.34-4.32,.46-.68,.06-3.07,.01-3.9-.22-.93-.26-1.86-.76-2.19-1.02-2.09-1.62-2.09-4.63-.24-6.48,.87-.88,1.77-1.71,2.86-2.31,.27-.15,.27-.22,.03-.42-1.67-1.39-2.66-3.17-2.92-5.33-.3-2.41,.38-4.55,1.96-6.38,.47-.54,.98-1.01,1.52-1.41,1.97-1.46,4-1.76,4.94-1.89,.94-.13,2.31-.21,3.92,.11,0,0,2,.39,3.85,1.48Zm-2.29,5.87c.02-2.37-2.42-4.13-4.73-3.6-.88,.2-1.55,.76-2.09,1.47-.64,.84-.94,1.79-.82,2.86,.1,.88,.5,1.62,1,2.33,.78,1.11,1.57,2.22,2.35,3.34,.28,.4,.51,.4,.79,0,.81-1.14,1.62-2.28,2.43-3.43,.61-.87,1.09-1.79,1.08-2.98Z"/>
</svg>