<?xml version="1.0" encoding="UTF-8"?>
<svg id="Layer_2" data-name="Layer 2" xmlns="http://www.w3.org/2000/svg" xmlns:xlink="http://www.w3.org/1999/xlink" viewBox="0 0 173.12 34">
  <defs>
    <style>
      .cls-1 {
        clip-path: url(#clippath);
      }

      .cls-2 {
        fill: none;
      }

      .cls-3 {
        fill: #014122;
      }
    </style>
    <clipPath id="clippath">
      <rect class="cls-2" x="57.6" y="5.16" width="92.89" height="28.84"/>
    </clipPath>
  </defs>
  <path class="cls-3" d="M26.19,1.7c.36,.21,1.4,.93,1.91,1.48,.89,.96,1.45,2.14,1.78,3.47,.82,3.39-.62,6.81-3.61,8.71-1.51,.96-3.59,1.48-5.36,1.65-2.57,.25-4.22,.03-5.46,.7-.51,.28-.99,.87-.77,1.26,.43,.76,1.67,.68,2.15,.7,1.1,.04,2.2,0,3.29-.02,1.49-.03,3.46-.21,4.94-.08,.99,.09,2.42,.39,3.7,1.21,1.52,.99,2.27,2.41,2.33,4.21,.07,2.01-.7,3.7-2.01,5.15-1.66,1.83-3.79,2.81-6.13,3.38-2.06,.49-4.16,.59-6.27,.41-1.8-.16-3.54-.56-5.13-1.47-1.03-.59-1.87-1.36-2.47-2.4-.35-.6-.28-1.35,.03-1.94,.17-.34,.79-1.06,1.35-1.4,1.07-.65,1.85-.77,3.11-.82,.54-.02,1.03,.06,1.33,.15,.51,.16,.52,.49,.52,.5-.6,.21-.93,.44-1.1,.68-.22,.3-.16,.51,.09,.78,.25,.27,.56,.52,.89,.7,.84,.44,1.76,.61,2.7,.71,1.46,.15,2.9,.05,4.3-.4,.91-.3,1.72-.78,2.4-1.47,.74-.76,.63-1.58-.3-2.09-.25-.14-.54-.22-.82-.28-.96-.2-1.92-.12-2.88-.03-1.44,.13-2.88,.34-4.32,.46-.68,.06-3.07,.01-3.9-.22-.93-.26-1.86-.76-2.19-1.02-2.09-1.62-2.09-4.63-.24-6.48,.87-.88,1.77-1.71,2.86-2.31,.27-.15,.27-.22,.03-.42-1.67-1.39-2.66-3.17-2.92-5.33-.3-2.41,.38-4.55,1.96-6.38,.47-.54,.98-1.01,1.52-1.41C15.45,.55,17.48,.24,18.42,.11c.94-.13,2.31-.21,3.92,.11,0,0,2,.39,3.85,1.48Zm-2.29,5.87c.02-2.37-2.42-4.13-4.73-3.6-.88,.2-1.55,.76-2.09,1.47-.64,.84-.94,1.79-.82,2.86,.1,.88,.5,1.62,1,2.33,.78,1.11,1.57,2.22,2.35,3.34,.28,.4,.51,.4,.79,0,.81-1.14,1.62-2.28,2.43-3.43,.61-.87,1.09-1.79,1.08-2.98Z"/>
  <g class="cls-1">
    <g>
      <path class="cls-3" d="M75.18,23.08c0,.97,0,1.94,0,2.91-.01,.95-.53,1.32-1.41,.98-.81-.32-1.53-.32-2.39-.04-3.44,1.12-6.77,.99-9.78-1.25-1.95-1.46-3.07-3.46-3.61-5.8-.64-2.75-.57-5.48,.6-8.07,1.63-3.61,4.44-5.77,8.45-6.32,2.36-.32,4.62,.15,6.86,.81,.37,.11,.64,.34,.66,.77,.06,1.81,.16,3.63,.18,5.44,0,.65-.63,.98-1.14,.57-.55-.45-1.03-1-1.45-1.58-.43-.6-.7-1.3-1.1-1.91-1.86-2.85-5.12-2.88-7.06-.08-.9,1.3-1.32,2.76-1.41,4.3-.16,2.54-.08,5.07,.84,7.49,.53,1.39,1.27,2.62,2.51,3.51,.83,.59,1.75,.85,2.77,.79,1.15-.07,1.88-.68,1.97-1.84,.07-.92,0-1.86-.06-2.79-.06-.89-.62-1.51-1.3-2.03-.23-.18-.47-.34-.68-.54-.48-.46-.39-.96,.24-1.22,.16-.07,.35-.1,.53-.1,2.02,0,4.04,0,6.06,0,.21,0,.44,.04,.63,.13,.55,.24,.67,.84,.28,1.29-.11,.12-.22,.26-.36,.33-.73,.39-.88,1.01-.83,1.77,.05,.82,.01,1.65,.01,2.48h0Z"/>
      <path class="cls-3" d="M86.6,25.48c-.27,.28-.47,.51-.69,.71-1.54,1.48-4.05,1.86-5.91,.9-1.1-.56-1.66-1.48-1.77-2.67-.08-.88-.1-1.76-.11-2.64-.02-1.91-.02-3.81,0-5.72,0-.66-.26-1.14-.81-1.49-.14-.09-.31-.15-.4-.27-.17-.23-.43-.51-.4-.73,.03-.23,.33-.55,.57-.62,1.51-.44,3.06-.58,4.63-.52,.49,.02,.58,.4,.58,.82,0,2.48,0,4.97,0,7.45,0,.7,0,1.4,.01,2.1,.03,1.23,.56,1.94,1.45,2.03,1.3,.13,2.36-.51,2.65-1.65,.12-.48,.19-.99,.2-1.49,.03-2,.02-3.99,.02-5.99,0-.77-.49-1.23-1.08-1.64-.19-.13-.44-.39-.41-.54,.05-.21,.3-.5,.5-.54,1.17-.22,2.35-.46,3.54-.53,1.88-.11,1.64-.03,1.64,1.55,0,2.86,0,5.72,.01,8.58,0,.5,.01,1.01,.1,1.5,.06,.32,.23,.64,.42,.91,.24,.33,.57,.61,.85,.91,.34,.36,.32,.64-.13,.85-.35,.17-.74,.32-1.13,.36-1.12,.12-2.24,.2-3.36,.25-.65,.03-.88-.22-.94-.86-.03-.31-.03-.63-.05-1.03h0Z"/>
      <path class="cls-3" d="M144.62,22.06c.66-2.12,1.34-4.24,1.96-6.37,.34-1.15,.22-1.33-.79-1.99-.2-.13-.43-.43-.4-.61,.03-.23,.3-.45,.5-.64,.09-.09,.27-.1,.41-.11,1.11,0,2.22-.04,3.33,.01,.29,.01,.71,.25,.81,.49,.1,.23-.04,.7-.24,.9-1.04,1.06-1.7,2.33-2.19,3.69-1.15,3.25-2.21,6.52-3.42,9.75-.55,1.47-1.25,2.91-2.07,4.25-.88,1.43-2.21,2.39-3.97,2.54-1.01,.09-1.95-.18-2.75-.82-.87-.69-1.13-1.63-.9-2.66,.24-1.04,.91-1.79,1.94-2.17,.51-.18,.93,.01,1.2,.48,.24,.42,.43,.87,.68,1.28,.45,.74,1.17,.92,1.91,.45,.76-.48,1.25-1.2,1.57-2.01,.09-.23,.01-.57-.09-.82-.55-1.31-1.11-2.61-1.7-3.9-1.14-2.45-2.26-4.9-3.48-7.3-.48-.95-1.16-1.81-1.81-2.67-.47-.63-.33-1.23,.44-1.44,.05-.01,.1-.04,.16-.04,1.96,0,3.93-.04,5.88,.06,.94,.05,1.1,.6,.49,1.29-.64,.72-.62,1.56-.38,2.39,.62,2.11,1.7,4.02,2.72,5.96,.06,0,.12,0,.19,0h0Z"/>
      <path class="cls-3" d="M96.81,19.53c.03,1.36,.23,2.6,1.09,3.62,1.41,1.67,3.75,1.82,5.42,.37,.36-.31,.7-.63,1.1-.88,.18-.11,.57-.18,.67-.08,.15,.15,.25,.51,.18,.71-.79,2.08-2.12,3.71-4.4,4.16-4.21,.84-7.36-1.26-8.1-5.51-.35-2.03-.25-4.04,.65-5.96,1.46-3.1,4.92-4.61,8.2-3.57,2.08,.66,3.41,2.47,3.63,4.72,.19,1.96-.39,2.5-2.27,2.42-1.83-.07-3.67-.02-5.51-.02h-.65Zm4.55-1.75c-.02-1.11-.14-2.16-.75-3.07-.67-1.02-1.99-1.15-2.79-.26-.84,.94-.93,2.12-1.01,3.33h4.54Z"/>
      <path class="cls-3" d="M111.54,27.67c-.67-.12-1.56-.22-2.41-.44-1.8-.46-2.73-1.67-2.84-3.49-.03-.48-.07-.97,0-1.44,.03-.21,.28-.5,.48-.55,.21-.05,.55,.09,.7,.26,.31,.37,.54,.81,.79,1.22,.51,.86,1.1,1.68,1.98,2.18,.45,.25,1.02,.4,1.53,.4,1.07,0,1.66-.95,1.31-1.97-.27-.78-.87-1.27-1.5-1.74-1.23-.92-2.53-1.76-3.72-2.72-1.74-1.4-2.08-3.62-.88-5.35,.72-1.04,1.77-1.57,2.99-1.81,1.79-.36,3.5,.06,5.19,.56,.31,.09,.67,.45,.76,.76,.26,.87,.42,1.77,.58,2.67,.06,.38,0,.79-.45,.94-.45,.16-.63-.21-.87-.48-.66-.76-1.31-1.53-2.03-2.24-.45-.44-1.04-.72-1.72-.69-.87,.05-1.37,.77-1.1,1.58,.26,.77,.85,1.3,1.48,1.75,1.21,.86,2.47,1.64,3.68,2.5,1.58,1.12,2.24,2.63,1.73,4.51-.51,1.87-1.79,3-3.71,3.37-.57,.11-1.15,.13-1.95,.21h0Z"/>
      <path class="cls-3" d="M134.15,15.28c0,2.91,0,5.83,0,8.74,0,.61,.15,1.12,.57,1.57,.29,.31,.63,.64,.41,1.14-.22,.48-.68,.58-1.14,.59-1.31,.02-2.62,0-3.93,0-.13,0-.27,0-.37-.06-.27-.16-.65-.3-.73-.54-.08-.24,.05-.68,.24-.86,.58-.51,.7-1.12,.7-1.83-.02-4.73-.02-9.46,0-14.19,0-.9-.29-1.55-1.06-2.03-.54-.34-.57-.83,0-1.07,1.38-.58,2.79-1.1,4.22-1.53,.71-.21,1.1,.23,1.1,1.01,0,3.02,0,6.04,0,9.06h0Z"/>
      <path class="cls-3" d="M124.06,12.33c1.13,0,2.22-.02,3.31,.01,.26,0,.51,.17,.77,.26-.13,.28-.18,.63-.39,.81-.73,.61-1.64,.8-2.58,.87-.36,.03-.72,0-1.13,0-.01,.19-.04,.34-.04,.5,0,2.5,0,5,0,7.5,0,.45,.04,.9,.11,1.34,.14,1,1,1.42,1.89,.92,.36-.2,.65-.53,1.01-.72,.24-.13,.55-.12,.83-.18,.06,.28,.23,.6,.15,.84-.44,1.37-1.25,2.45-2.7,2.87-1.4,.4-2.82,.45-4.07-.44-.99-.7-1.48-1.74-1.5-2.93-.05-2.77-.03-5.54-.04-8.31,0-.16,0-.32,0-.49-.06-.86-.22-1.01-1.09-1.07-.18-.01-.36-.02-.54-.04-.43-.04-.73-.25-.78-.69-.04-.42,.17-.72,.57-.88,.49-.19,.99-.36,1.45-.6,1.3-.68,2.31-1.67,3.04-2.93,.15-.25,.25-.54,.45-.73,.21-.2,.59-.48,.76-.41,.25,.1,.5,.48,.53,.76,.06,.71,0,1.44-.02,2.16,0,.5,0,1,0,1.57h0Z"/>
    </g>
  </g>
</svg>