<?xml version="1.0" encoding="UTF-8"?>
<svg id="Layer_2" data-name="Layer 2" xmlns="http://www.w3.org/2000/svg" xmlns:xlink="http://www.w3.org/1999/xlink" viewBox="0 0 161.82 26">
  <defs>
    <style>
      .cls-1 {
        clip-path: url(#clippath);
      }

      .cls-2 {
        fill: none;
      }

      .cls-3 {
        fill: #014122;
      }
    </style>
    <clipPath id="clippath">
      <rect class="cls-2" x="54.73" y="4.59" width="68.95" height="21.41"/>
    </clipPath>
  </defs>
  <path class="cls-3" d="M19.65,1.3c.28,.16,1.07,.71,1.46,1.13,.68,.73,1.11,1.64,1.36,2.65,.63,2.59-.48,5.21-2.76,6.66-1.16,.74-2.74,1.13-4.1,1.26-1.96,.19-3.23,.03-4.17,.54-.39,.21-.75,.67-.59,.96,.33,.58,1.28,.52,1.65,.53,.84,.03,1.68,0,2.52-.02,1.14-.03,2.65-.16,3.78-.06,.76,.07,1.85,.3,2.83,.93,1.17,.75,1.73,1.84,1.78,3.22,.06,1.54-.53,2.83-1.54,3.94-1.27,1.4-2.9,2.15-4.69,2.58-1.58,.38-3.18,.45-4.79,.31-1.37-.12-2.7-.43-3.92-1.12-.79-.45-1.43-1.04-1.89-1.84-.26-.46-.21-1.03,.02-1.48,.13-.26,.6-.81,1.03-1.07,.82-.49,1.41-.59,2.38-.62,.41-.01,.79,.04,1.01,.12,.39,.13,.4,.38,.4,.38-.46,.16-.71,.34-.84,.52-.17,.23-.12,.39,.07,.59,.19,.21,.43,.4,.68,.53,.64,.34,1.35,.47,2.06,.54,1.11,.12,2.21,.04,3.29-.31,.7-.23,1.32-.59,1.83-1.13,.56-.58,.48-1.21-.23-1.6-.19-.11-.41-.17-.63-.21-.73-.15-1.47-.09-2.2-.03-1.1,.1-2.2,.26-3.3,.35-.52,.05-2.35,.01-2.98-.17-.71-.2-1.42-.58-1.67-.78-1.6-1.24-1.59-3.54-.19-4.96,.66-.67,1.35-1.31,2.19-1.77,.21-.11,.21-.17,.02-.32-1.27-1.06-2.03-2.43-2.24-4.08-.23-1.84,.29-3.48,1.5-4.88,.36-.41,.75-.77,1.16-1.08C11.44,.42,12.99,.19,13.71,.09c.72-.1,1.77-.16,3,.08,0,0,1.53,.3,2.94,1.13Zm-1.75,4.49c.02-1.81-1.85-3.16-3.61-2.75-.67,.16-1.19,.58-1.6,1.12-.49,.64-.72,1.37-.63,2.19,.08,.67,.38,1.24,.76,1.78,.6,.85,1.2,1.7,1.8,2.55,.21,.3,.39,.31,.6,0,.62-.87,1.24-1.75,1.86-2.62,.47-.66,.83-1.37,.83-2.28Z"/>
  <g class="cls-1">
    <g>
      <path class="cls-3" d="M67.79,17.89c0,.72,0,1.44,0,2.16,0,.71-.39,.98-1.04,.72-.6-.24-1.13-.24-1.77-.03-2.55,.83-5.03,.74-7.26-.93-1.45-1.08-2.28-2.57-2.68-4.3-.47-2.04-.42-4.07,.45-5.99,1.21-2.68,3.3-4.28,6.27-4.69,1.75-.24,3.43,.11,5.09,.6,.27,.08,.48,.25,.49,.57,.05,1.35,.12,2.69,.13,4.04,0,.48-.47,.73-.85,.42-.41-.33-.77-.74-1.08-1.17-.32-.44-.52-.96-.82-1.42-1.38-2.12-3.8-2.14-5.24-.06-.67,.96-.98,2.05-1.05,3.19-.12,1.89-.06,3.76,.62,5.56,.39,1.03,.94,1.95,1.86,2.61,.61,.44,1.3,.63,2.05,.58,.86-.05,1.4-.51,1.47-1.36,.06-.69,0-1.38-.05-2.07-.04-.66-.46-1.12-.96-1.51-.17-.13-.35-.25-.51-.4-.36-.34-.29-.71,.18-.91,.12-.05,.26-.07,.39-.07,1.5,0,3,0,4.5,0,.16,0,.33,.03,.47,.09,.41,.18,.5,.63,.2,.96-.08,.09-.16,.19-.26,.25-.54,.29-.65,.75-.62,1.31,.04,.61,0,1.23,0,1.84h0Z"/>
      <path class="cls-3" d="M76.27,19.67c-.2,.21-.35,.38-.51,.53-1.14,1.1-3,1.38-4.39,.66-.82-.42-1.23-1.1-1.31-1.98-.06-.65-.08-1.3-.08-1.96-.01-1.42-.01-2.83,0-4.25,0-.49-.2-.84-.6-1.1-.1-.07-.23-.11-.3-.2-.13-.17-.32-.38-.29-.54,.02-.17,.24-.41,.42-.46,1.12-.33,2.27-.43,3.44-.39,.36,.01,.43,.3,.43,.61,0,1.84,0,3.69,0,5.53,0,.52,0,1.04,0,1.56,.03,.91,.41,1.44,1.08,1.51,.97,.1,1.75-.38,1.97-1.23,.09-.36,.14-.74,.15-1.11,.02-1.48,.02-2.97,.01-4.45,0-.57-.36-.91-.8-1.22-.14-.09-.33-.29-.3-.4,.03-.16,.22-.37,.37-.4,.87-.16,1.74-.34,2.63-.39,1.39-.08,1.22-.02,1.22,1.15,0,2.12,0,4.25,0,6.37,0,.37,0,.75,.08,1.12,.04,.24,.17,.47,.31,.67,.18,.25,.42,.45,.63,.68,.25,.27,.24,.47-.09,.63-.26,.13-.55,.24-.84,.27-.83,.09-1.66,.15-2.5,.19-.48,.02-.66-.17-.7-.64-.02-.23-.02-.47-.04-.77h0Z"/>
      <path class="cls-3" d="M119.34,17.13c.49-1.57,.99-3.15,1.46-4.73,.25-.85,.16-.99-.58-1.48-.15-.1-.32-.32-.3-.46,.02-.17,.22-.33,.37-.47,.07-.06,.2-.08,.31-.08,.82,0,1.65-.03,2.47,.01,.22,.01,.53,.19,.6,.36,.07,.17-.03,.52-.18,.67-.77,.79-1.26,1.73-1.62,2.74-.85,2.41-1.64,4.84-2.54,7.24-.41,1.09-.93,2.16-1.54,3.15-.65,1.06-1.64,1.77-2.95,1.89-.75,.07-1.45-.13-2.04-.61-.65-.51-.84-1.21-.67-1.98,.18-.78,.67-1.33,1.44-1.61,.38-.14,.69,.01,.89,.36,.18,.31,.32,.65,.51,.95,.33,.55,.87,.68,1.42,.34,.57-.36,.93-.89,1.17-1.49,.07-.17,0-.42-.07-.61-.41-.97-.82-1.94-1.26-2.89-.84-1.82-1.68-3.64-2.58-5.42-.36-.71-.86-1.35-1.34-1.98-.35-.46-.24-.92,.32-1.07,.04-.01,.08-.03,.12-.03,1.46,0,2.91-.03,4.37,.04,.7,.03,.82,.44,.36,.96-.47,.54-.46,1.16-.28,1.78,.46,1.57,1.26,2.99,2.02,4.42,.05,0,.09,0,.14,0h0Z"/>
      <path class="cls-3" d="M83.84,15.26c.02,1.01,.17,1.93,.81,2.69,1.04,1.24,2.78,1.35,4.02,.28,.26-.23,.52-.47,.81-.66,.13-.09,.42-.13,.5-.06,.11,.11,.19,.38,.13,.53-.59,1.54-1.58,2.76-3.27,3.09-3.13,.62-5.47-.93-6.01-4.09-.26-1.51-.18-3,.49-4.42,1.08-2.3,3.65-3.42,6.08-2.65,1.54,.49,2.53,1.83,2.69,3.5,.14,1.46-.29,1.85-1.68,1.8-1.36-.05-2.73-.01-4.09-.01h-.48Zm3.38-1.3c-.01-.83-.11-1.6-.56-2.28-.5-.76-1.48-.85-2.07-.19-.62,.7-.69,1.57-.75,2.47h3.37Z"/>
      <path class="cls-3" d="M94.78,21.3c-.5-.09-1.16-.16-1.79-.33-1.34-.34-2.03-1.24-2.11-2.59-.02-.36-.05-.72,0-1.07,.02-.16,.21-.37,.36-.41,.15-.04,.41,.07,.52,.2,.23,.27,.4,.6,.58,.91,.38,.64,.82,1.25,1.47,1.62,.33,.19,.76,.3,1.14,.3,.8,0,1.23-.71,.97-1.46-.2-.58-.65-.94-1.11-1.29-.92-.68-1.88-1.3-2.76-2.02-1.29-1.04-1.54-2.69-.66-3.97,.53-.77,1.32-1.16,2.22-1.35,1.33-.27,2.6,.05,3.85,.42,.23,.07,.49,.34,.56,.57,.19,.65,.31,1.32,.43,1.98,.05,.28,0,.58-.34,.7-.33,.12-.47-.16-.64-.36-.49-.56-.98-1.14-1.51-1.66-.34-.33-.77-.54-1.28-.51-.64,.04-1.02,.57-.82,1.18,.19,.58,.63,.96,1.1,1.3,.9,.64,1.83,1.22,2.73,1.85,1.17,.83,1.66,1.95,1.28,3.35-.38,1.39-1.33,2.23-2.76,2.5-.42,.08-.86,.09-1.45,.16h0Z"/>
      <path class="cls-3" d="M111.56,12.1c0,2.16,0,4.33,0,6.49,0,.45,.11,.83,.42,1.17,.21,.23,.47,.48,.3,.84-.16,.36-.51,.43-.85,.44-.97,.01-1.94,0-2.91,0-.09,0-.2,0-.28-.04-.2-.12-.48-.22-.54-.4-.06-.18,.03-.51,.18-.64,.43-.38,.52-.83,.52-1.36-.01-3.51-.02-7.02,0-10.53,0-.67-.21-1.15-.79-1.51-.4-.25-.42-.62,0-.79,1.02-.43,2.07-.82,3.13-1.14,.52-.16,.82,.17,.82,.75,0,2.24,0,4.49,0,6.73h0Z"/>
      <path class="cls-3" d="M104.07,9.91c.84,0,1.65-.01,2.46,0,.19,0,.38,.13,.57,.2-.09,.2-.13,.47-.29,.6-.54,.45-1.22,.6-1.91,.64-.27,.02-.54,0-.84,0-.01,.14-.03,.25-.03,.37,0,1.86,0,3.71,0,5.57,0,.33,.03,.67,.08,1,.11,.74,.74,1.05,1.4,.68,.27-.15,.48-.39,.75-.54,.18-.1,.41-.09,.61-.13,.04,.21,.17,.45,.11,.63-.33,1.01-.93,1.82-2.01,2.13-1.04,.3-2.09,.33-3.02-.33-.74-.52-1.1-1.29-1.11-2.17-.03-2.06-.02-4.11-.03-6.17,0-.12,0-.24,0-.36-.05-.64-.17-.75-.81-.79-.13,0-.27-.02-.4-.03-.32-.03-.54-.18-.58-.51-.03-.31,.12-.53,.42-.65,.36-.14,.73-.27,1.08-.45,.96-.51,1.71-1.24,2.26-2.18,.11-.18,.19-.4,.34-.54,.16-.15,.44-.36,.57-.3,.18,.08,.37,.36,.39,.56,.05,.53,0,1.07-.01,1.6,0,.37,0,.74,0,1.16h0Z"/>
    </g>
  </g>
</svg>