<?xml version="1.0" encoding="UTF-8"?>
<svg id="Layer_2" data-name="Layer 2" xmlns="http://www.w3.org/2000/svg" xmlns:xlink="http://www.w3.org/1999/xlink" viewBox="0 0 161.82 26">
  <defs>
    <style>
      .cls-1 {
        clip-path: url(#clippath);
      }

      .cls-2 {
        fill: none;
      }

      .cls-3 {
        fill: #014122;
      }
    </style>
    <clipPath id="clippath">
      <rect class="cls-2" x="50.64" y="3.65" width="71.99" height="22.35"/>
    </clipPath>
  </defs>
  <g class="cls-1">
    <g>
      <path class="cls-3" d="M64.27,17.53c0,.75,0,1.51,0,2.26,0,.74-.41,1.03-1.09,.76-.62-.25-1.18-.25-1.85-.03-2.66,.87-5.25,.77-7.58-.97-1.51-1.13-2.38-2.68-2.8-4.49-.49-2.13-.44-4.25,.47-6.26,1.26-2.8,3.44-4.47,6.55-4.89,1.83-.25,3.58,.11,5.32,.63,.29,.08,.5,.26,.51,.59,.05,1.4,.12,2.81,.14,4.22,0,.51-.49,.76-.89,.44-.43-.35-.8-.78-1.12-1.22-.33-.46-.54-1.01-.86-1.48-1.44-2.21-3.97-2.23-5.47-.06-.7,1.01-1.02,2.14-1.09,3.33-.12,1.97-.07,3.93,.65,5.81,.41,1.07,.99,2.03,1.94,2.72,.64,.46,1.36,.66,2.14,.61,.89-.06,1.46-.53,1.53-1.42,.06-.72,0-1.44-.05-2.16-.04-.69-.48-1.17-1-1.57-.18-.14-.37-.26-.53-.42-.38-.35-.3-.75,.18-.95,.13-.05,.27-.08,.41-.08,1.56,0,3.13,0,4.69,0,.16,0,.34,.03,.49,.1,.42,.19,.52,.65,.21,1-.08,.09-.17,.2-.28,.26-.57,.3-.68,.78-.64,1.37,.04,.64,0,1.28,0,1.92h0Z"/>
      <path class="cls-3" d="M73.12,19.39c-.21,.22-.36,.39-.53,.55-1.19,1.15-3.14,1.44-4.58,.69-.85-.44-1.29-1.15-1.37-2.07-.06-.68-.08-1.36-.08-2.04-.01-1.48-.02-2.96,0-4.43,0-.51-.2-.88-.63-1.15-.11-.07-.24-.11-.31-.21-.13-.18-.33-.39-.31-.57,.02-.18,.25-.43,.44-.48,1.17-.34,2.37-.45,3.59-.4,.38,.02,.45,.31,.45,.64,0,1.92,0,3.85,0,5.77,0,.54,0,1.09,0,1.63,.03,.95,.43,1.5,1.13,1.57,1.01,.1,1.83-.4,2.05-1.28,.09-.38,.15-.77,.16-1.15,.02-1.55,.02-3.1,.02-4.64,0-.6-.38-.96-.84-1.27-.14-.1-.34-.3-.32-.42,.04-.16,.23-.39,.39-.42,.91-.17,1.82-.36,2.74-.41,1.46-.09,1.27-.02,1.27,1.2,0,2.22,0,4.43,0,6.65,0,.39,0,.78,.08,1.17,.05,.25,.18,.49,.33,.7,.19,.26,.44,.47,.66,.71,.26,.28,.25,.49-.1,.66-.27,.13-.58,.25-.88,.28-.87,.09-1.74,.16-2.61,.19-.5,.02-.68-.17-.73-.66-.02-.24-.02-.49-.04-.8h0Z"/>
      <path class="cls-3" d="M118.09,16.74c.51-1.64,1.03-3.28,1.52-4.93,.26-.89,.17-1.03-.61-1.54-.15-.1-.33-.33-.31-.48,.03-.18,.23-.35,.39-.49,.07-.07,.21-.08,.32-.08,.86,0,1.72-.03,2.58,.01,.23,.01,.55,.19,.63,.38,.08,.18-.03,.54-.19,.7-.8,.82-1.32,1.8-1.69,2.86-.89,2.52-1.72,5.06-2.65,7.56-.43,1.14-.97,2.25-1.6,3.29-.68,1.11-1.71,1.85-3.08,1.97-.78,.07-1.51-.14-2.13-.63-.68-.54-.88-1.26-.69-2.06,.18-.81,.7-1.39,1.5-1.68,.4-.14,.72,.01,.93,.37,.19,.33,.34,.67,.53,.99,.35,.57,.91,.71,1.48,.35,.59-.37,.97-.93,1.22-1.56,.07-.18,0-.44-.07-.64-.42-1.01-.86-2.03-1.32-3.02-.88-1.9-1.75-3.8-2.7-5.66-.37-.74-.9-1.41-1.4-2.07-.37-.49-.25-.96,.34-1.12,.04-.01,.08-.03,.12-.03,1.52,0,3.04-.03,4.56,.04,.73,.04,.85,.46,.38,1-.49,.56-.48,1.21-.29,1.85,.48,1.64,1.32,3.12,2.11,4.62,.05,0,.1,0,.14,0h0Z"/>
      <path class="cls-3" d="M81.03,14.79c.03,1.06,.18,2.01,.84,2.8,1.09,1.3,2.91,1.41,4.2,.29,.28-.24,.55-.49,.85-.68,.14-.09,.44-.14,.52-.06,.12,.12,.2,.4,.14,.55-.61,1.61-1.65,2.88-3.41,3.23-3.26,.65-5.71-.97-6.28-4.27-.27-1.58-.19-3.13,.51-4.62,1.13-2.4,3.81-3.57,6.35-2.76,1.61,.51,2.64,1.92,2.81,3.66,.14,1.52-.3,1.93-1.76,1.88-1.42-.06-2.85-.01-4.27-.01h-.51Zm3.53-1.35c-.01-.86-.11-1.67-.58-2.38-.52-.79-1.54-.89-2.16-.2-.65,.73-.72,1.64-.78,2.58h3.52Z"/>
      <path class="cls-3" d="M92.45,21.09c-.52-.09-1.21-.17-1.87-.34-1.4-.36-2.11-1.29-2.2-2.71-.02-.37-.05-.75,0-1.12,.02-.16,.22-.39,.37-.43,.16-.04,.43,.07,.54,.2,.24,.29,.42,.63,.61,.95,.4,.67,.85,1.3,1.54,1.69,.35,.2,.79,.31,1.19,.31,.83,0,1.29-.74,1.02-1.52-.21-.6-.68-.99-1.16-1.35-.96-.71-1.96-1.36-2.89-2.11-1.35-1.09-1.61-2.8-.69-4.15,.55-.81,1.38-1.22,2.31-1.41,1.38-.28,2.71,.05,4.02,.44,.24,.07,.52,.35,.59,.59,.2,.67,.33,1.37,.45,2.07,.05,.29,0,.61-.35,.73-.35,.12-.49-.16-.67-.37-.51-.59-1.02-1.19-1.58-1.74-.35-.34-.81-.56-1.33-.53-.67,.04-1.06,.59-.86,1.23,.2,.6,.66,1.01,1.15,1.35,.94,.66,1.92,1.27,2.85,1.94,1.22,.86,1.74,2.04,1.34,3.5-.4,1.45-1.38,2.32-2.88,2.61-.44,.08-.89,.1-1.51,.16h0Z"/>
      <path class="cls-3" d="M109.97,11.49c0,2.26,0,4.52,0,6.77,0,.47,.12,.87,.44,1.22,.22,.24,.49,.5,.32,.88-.17,.37-.53,.45-.89,.45-1.01,.01-2.03,0-3.04,0-.1,0-.21,0-.29-.04-.21-.12-.5-.23-.57-.42-.06-.18,.04-.53,.19-.66,.45-.39,.54-.87,.54-1.42-.01-3.67-.02-7.33,0-11,0-.7-.22-1.2-.82-1.57-.42-.26-.44-.64,0-.83,1.07-.45,2.16-.86,3.27-1.19,.55-.16,.85,.18,.85,.78,0,2.34,0,4.68,0,7.02h0Z"/>
      <path class="cls-3" d="M102.15,9.2c.87,0,1.72-.01,2.56,0,.2,0,.4,.13,.59,.2-.1,.21-.14,.49-.3,.63-.57,.47-1.27,.62-2,.67-.28,.02-.56,0-.87,0-.01,.15-.03,.27-.03,.39,0,1.94,0,3.88,0,5.81,0,.35,.03,.7,.08,1.04,.11,.78,.77,1.1,1.46,.71,.28-.16,.5-.41,.78-.56,.18-.1,.43-.09,.64-.14,.04,.22,.18,.47,.12,.65-.34,1.06-.97,1.9-2.1,2.22-1.09,.31-2.18,.35-3.16-.34-.77-.55-1.14-1.35-1.16-2.27-.04-2.15-.02-4.29-.03-6.44,0-.13,0-.25,0-.38-.05-.67-.17-.79-.84-.83-.14,0-.28-.02-.42-.03-.33-.03-.57-.19-.6-.53-.03-.33,.13-.56,.44-.68,.38-.15,.77-.28,1.12-.47,1.01-.53,1.79-1.3,2.36-2.27,.11-.19,.2-.42,.35-.57,.16-.16,.46-.37,.59-.32,.19,.08,.39,.37,.41,.59,.05,.55,0,1.11-.01,1.67,0,.39,0,.77,0,1.21h0Z"/>
    </g>
  </g>
  <path class="cls-3" d="M18.65,1.3c.28,.16,1.07,.71,1.46,1.13,.68,.73,1.11,1.64,1.36,2.65,.63,2.59-.48,5.21-2.76,6.66-1.16,.74-2.74,1.13-4.1,1.26-1.96,.19-3.23,.03-4.17,.54-.39,.21-.75,.67-.59,.97,.33,.58,1.28,.52,1.65,.53,.84,.03,1.68,0,2.52-.02,1.14-.03,2.65-.16,3.78-.06,.76,.07,1.85,.3,2.83,.93,1.17,.75,1.73,1.84,1.78,3.22,.06,1.54-.53,2.83-1.54,3.94-1.27,1.4-2.9,2.15-4.69,2.58-1.58,.38-3.18,.45-4.79,.31-1.38-.12-2.7-.43-3.92-1.12-.79-.45-1.43-1.04-1.89-1.84-.26-.46-.21-1.03,.02-1.48,.13-.26,.6-.81,1.03-1.07,.82-.49,1.41-.59,2.38-.62,.41-.01,.79,.04,1.01,.12,.39,.13,.4,.38,.4,.38-.46,.16-.71,.34-.84,.52-.17,.23-.12,.39,.07,.59,.19,.21,.43,.4,.68,.53,.64,.34,1.35,.47,2.06,.54,1.11,.12,2.22,.04,3.29-.31,.7-.23,1.32-.59,1.83-1.13,.56-.58,.48-1.21-.23-1.6-.19-.11-.41-.17-.63-.21-.73-.15-1.47-.09-2.2-.03-1.1,.1-2.2,.26-3.3,.35-.52,.05-2.35,.01-2.98-.17-.71-.2-1.42-.58-1.67-.78-1.6-1.24-1.59-3.54-.19-4.96,.67-.67,1.35-1.31,2.19-1.77,.21-.11,.21-.17,.02-.32-1.27-1.06-2.03-2.43-2.24-4.08-.23-1.84,.29-3.48,1.5-4.88,.36-.41,.75-.77,1.16-1.08C10.44,.42,11.99,.19,12.71,.09c.72-.1,1.77-.16,3,.08,0,0,1.53,.3,2.94,1.13Zm-1.75,4.49c.02-1.81-1.85-3.16-3.61-2.75-.67,.16-1.19,.58-1.6,1.12-.49,.64-.72,1.37-.63,2.19,.08,.67,.38,1.24,.76,1.78,.6,.85,1.2,1.7,1.8,2.55,.21,.3,.39,.31,.6,0,.62-.87,1.24-1.75,1.86-2.62,.47-.66,.83-1.37,.83-2.28Z"/>
</svg>