<?xml version="1.0" encoding="UTF-8"?>
<svg id="Layer_2" data-name="Layer 2" xmlns="http://www.w3.org/2000/svg" xmlns:xlink="http://www.w3.org/1999/xlink" viewBox="0 0 266.29 56">
  <defs>
    <style>
      .cls-1 {
        clip-path: url(#clippath);
      }

      .cls-2 {
        fill: none;
      }

      .cls-3 {
        fill: #014122;
      }
    </style>
    <clipPath id="clippath">
      <rect class="cls-2" x="101.43" y="8.53" width="152.88" height="47.47"/>
    </clipPath>
  </defs>
  <g class="cls-1">
    <g>
      <path class="cls-3" d="M130.37,38.02c0,1.6,.02,3.2,0,4.8-.02,1.57-.87,2.18-2.32,1.61-1.33-.53-2.52-.52-3.93-.06-5.65,1.85-11.14,1.63-16.09-2.05-3.22-2.4-5.05-5.7-5.94-9.54-1.05-4.53-.93-9.02,.99-13.29,2.68-5.94,7.31-9.49,13.91-10.39,3.89-.53,7.61,.24,11.29,1.34,.61,.18,1.06,.56,1.08,1.26,.11,2.98,.26,5.97,.3,8.95,.01,1.07-1.04,1.61-1.88,.93-.91-.74-1.7-1.65-2.39-2.6-.7-.98-1.16-2.14-1.82-3.15-3.05-4.7-8.43-4.74-11.62-.14-1.48,2.14-2.17,4.54-2.32,7.08-.26,4.18-.14,8.34,1.38,12.33,.87,2.28,2.09,4.32,4.13,5.78,1.36,.98,2.88,1.4,4.55,1.29,1.9-.12,3.1-1.12,3.25-3.02,.12-1.52,0-3.07-.1-4.59-.09-1.47-1.01-2.48-2.13-3.34-.38-.29-.78-.56-1.12-.88-.8-.75-.64-1.58,.39-2.01,.27-.11,.58-.16,.87-.16,3.32-.01,6.65-.01,9.97,0,.35,0,.72,.07,1.04,.21,.9,.39,1.1,1.39,.45,2.12-.18,.2-.36,.42-.59,.55-1.2,.64-1.45,1.66-1.37,2.92,.09,1.36,.02,2.72,.02,4.09h0Z"/>
      <path class="cls-3" d="M149.17,41.97c-.45,.47-.77,.83-1.13,1.17-2.53,2.44-6.66,3.05-9.73,1.47-1.81-.93-2.74-2.43-2.91-4.39-.13-1.44-.17-2.89-.18-4.34-.03-3.14-.03-6.28,0-9.42,.01-1.09-.44-1.87-1.33-2.45-.23-.14-.52-.24-.67-.44-.28-.37-.7-.84-.65-1.21,.05-.39,.54-.9,.93-1.02,2.48-.72,5.04-.96,7.62-.86,.8,.03,.95,.66,.95,1.35,0,4.09,0,8.17,0,12.26,0,1.15-.01,2.31,.02,3.46,.06,2.02,.91,3.19,2.39,3.34,2.15,.21,3.89-.84,4.36-2.72,.2-.8,.32-1.63,.33-2.45,.04-3.29,.03-6.57,.03-9.86,0-1.27-.8-2.03-1.78-2.7-.3-.21-.72-.64-.67-.89,.07-.35,.49-.83,.83-.89,1.93-.36,3.87-.76,5.82-.88,3.09-.19,2.7-.05,2.7,2.56,.01,4.71,0,9.42,.02,14.13,0,.83,.02,1.67,.17,2.47,.1,.52,.38,1.05,.7,1.49,.4,.55,.93,1,1.4,1.5,.56,.59,.52,1.05-.21,1.4-.58,.28-1.22,.53-1.86,.59-1.84,.19-3.69,.33-5.53,.41-1.06,.05-1.45-.37-1.55-1.41-.05-.52-.05-1.04-.08-1.7h0Z"/>
      <path class="cls-3" d="M244.67,36.34c1.08-3.49,2.2-6.97,3.23-10.48,.56-1.89,.35-2.19-1.29-3.27-.32-.21-.7-.7-.66-1.01,.05-.38,.49-.74,.82-1.05,.15-.14,.45-.17,.68-.17,1.83-.01,3.65-.07,5.48,.02,.48,.02,1.17,.41,1.33,.81,.16,.39-.07,1.14-.4,1.48-1.71,1.75-2.8,3.83-3.6,6.08-1.89,5.34-3.64,10.74-5.63,16.05-.91,2.42-2.06,4.79-3.41,7-1.44,2.36-3.63,3.93-6.53,4.18-1.67,.14-3.21-.3-4.52-1.34-1.43-1.14-1.86-2.68-1.48-4.38,.39-1.72,1.49-2.95,3.19-3.56,.84-.3,1.54,.02,1.97,.79,.39,.69,.71,1.43,1.13,2.11,.74,1.22,1.93,1.51,3.14,.75,1.26-.79,2.06-1.97,2.59-3.31,.15-.38,.02-.94-.15-1.35-.9-2.15-1.82-4.3-2.8-6.42-1.87-4.03-3.72-8.06-5.72-12.02-.79-1.57-1.91-2.99-2.98-4.4-.78-1.03-.54-2.03,.72-2.37,.09-.02,.17-.07,.26-.07,3.23,.01,6.46-.06,9.68,.09,1.55,.08,1.81,.99,.8,2.13-1.05,1.19-1.02,2.57-.62,3.94,1.02,3.48,2.8,6.62,4.47,9.81,.1,0,.21,0,.31-.01h0Z"/>
      <path class="cls-3" d="M165.97,32.19c.05,2.25,.38,4.27,1.79,5.95,2.31,2.75,6.17,3,8.92,.61,.58-.51,1.16-1.04,1.81-1.45,.29-.19,.93-.29,1.1-.13,.25,.25,.42,.84,.29,1.17-1.3,3.42-3.5,6.11-7.24,6.85-6.93,1.38-12.12-2.07-13.33-9.06-.58-3.35-.4-6.66,1.08-9.81,2.4-5.1,8.09-7.58,13.49-5.87,3.42,1.09,5.61,4.07,5.97,7.77,.31,3.23-.64,4.11-3.73,3.99-3.02-.12-6.04-.03-9.07-.03h-1.07Zm7.5-2.88c-.03-1.83-.24-3.55-1.23-5.06-1.1-1.68-3.27-1.9-4.59-.42-1.38,1.55-1.53,3.49-1.66,5.48h7.47Z"/>
      <path class="cls-3" d="M190.22,45.58c-1.11-.2-2.56-.36-3.97-.72-2.97-.76-4.49-2.75-4.68-5.75-.05-.79-.11-1.6,0-2.37,.05-.35,.46-.83,.79-.91,.34-.08,.91,.15,1.15,.43,.51,.61,.88,1.33,1.29,2.02,.85,1.41,1.81,2.76,3.26,3.59,.73,.42,1.68,.66,2.53,.66,1.77,0,2.74-1.56,2.16-3.24-.44-1.28-1.44-2.09-2.46-2.86-2.03-1.51-4.16-2.89-6.13-4.48-2.87-2.31-3.42-5.95-1.46-8.81,1.18-1.71,2.92-2.58,4.91-2.99,2.94-.59,5.76,.11,8.54,.93,.51,.15,1.1,.75,1.25,1.26,.43,1.43,.69,2.92,.95,4.4,.11,.62-.02,1.29-.74,1.55-.74,.26-1.03-.35-1.42-.8-1.09-1.25-2.16-2.53-3.35-3.69-.74-.73-1.71-1.19-2.83-1.13-1.43,.08-2.26,1.26-1.82,2.61,.42,1.28,1.4,2.14,2.44,2.88,1.99,1.41,4.07,2.7,6.06,4.11,2.6,1.84,3.69,4.33,2.84,7.43-.84,3.07-2.94,4.93-6.11,5.54-.93,.18-1.9,.21-3.21,.35h0Z"/>
      <path class="cls-3" d="M227.43,25.19c0,4.79,.01,9.59-.01,14.38,0,1,.25,1.84,.94,2.59,.47,.52,1.04,1.05,.67,1.87-.36,.8-1.12,.95-1.88,.97-2.15,.03-4.31,0-6.46,0-.21,0-.45,0-.62-.09-.44-.26-1.07-.49-1.2-.88-.14-.39,.07-1.12,.4-1.41,.96-.84,1.15-1.84,1.14-3.02-.03-7.78-.03-15.57,0-23.35,0-1.48-.48-2.55-1.74-3.34-.89-.56-.94-1.37,0-1.76,2.27-.95,4.58-1.82,6.94-2.52,1.16-.35,1.81,.38,1.81,1.66,0,4.97,0,9.94,0,14.92h0Z"/>
      <path class="cls-3" d="M210.83,20.33c1.86,0,3.65-.03,5.44,.02,.42,.01,.84,.28,1.26,.43-.21,.45-.3,1.04-.64,1.33-1.21,1.01-2.71,1.32-4.25,1.43-.59,.04-1.19,0-1.86,0-.02,.31-.06,.56-.06,.82,0,4.12,0,8.23,.01,12.35,0,.74,.07,1.48,.17,2.21,.24,1.65,1.64,2.34,3.11,1.51,.59-.33,1.07-.87,1.66-1.19,.39-.21,.9-.2,1.36-.29,.09,.46,.37,.99,.25,1.39-.73,2.25-2.06,4.03-4.45,4.72-2.31,.67-4.64,.74-6.7-.73-1.63-1.16-2.43-2.87-2.46-4.82-.07-4.56-.05-9.12-.06-13.68,0-.27,.01-.53,0-.8-.1-1.41-.37-1.67-1.79-1.76-.3-.02-.6-.04-.9-.07-.71-.06-1.21-.41-1.28-1.13-.07-.69,.27-1.18,.94-1.45,.8-.32,1.63-.59,2.39-.99,2.14-1.12,3.79-2.75,5.01-4.83,.24-.41,.42-.89,.75-1.2,.35-.33,.97-.79,1.26-.67,.41,.17,.83,.79,.87,1.25,.1,1.17-.01,2.36-.03,3.55-.01,.82,0,1.64,0,2.58h0Z"/>
    </g>
  </g>
  <path class="cls-3" d="M45.93,2.79c.6,.35,2.3,1.52,3.15,2.43,1.47,1.58,2.4,3.52,2.92,5.71,1.35,5.58-1.03,11.21-5.95,14.35-2.49,1.59-5.91,2.43-8.82,2.71-4.23,.4-6.96,.06-8.99,1.16-.85,.46-1.62,1.44-1.26,2.08,.71,1.26,2.75,1.12,3.55,1.15,1.81,.07,3.62,0,5.43-.04,2.45-.06,5.7-.35,8.14-.14,1.63,.14,3.99,.64,6.09,2,2.51,1.62,3.74,3.97,3.84,6.93,.12,3.31-1.15,6.1-3.31,8.49-2.73,3.01-6.24,4.63-10.1,5.56-3.4,.81-6.85,.97-10.32,.67-2.96-.26-5.82-.92-8.44-2.42-1.69-.97-3.08-2.23-4.07-3.95-.57-.99-.46-2.22,.04-3.2,.29-.56,1.3-1.75,2.22-2.3,1.77-1.06,3.04-1.27,5.12-1.34,.88-.03,1.7,.1,2.18,.25,.84,.27,.86,.81,.86,.82-.99,.34-1.53,.73-1.82,1.12-.36,.49-.26,.84,.14,1.28,.42,.45,.92,.86,1.46,1.15,1.38,.73,2.91,1,4.44,1.16,2.4,.25,4.77,.08,7.08-.66,1.51-.49,2.84-1.28,3.95-2.43,1.21-1.25,1.03-2.6-.5-3.45-.41-.23-.89-.36-1.36-.46-1.57-.32-3.17-.19-4.74-.05-2.38,.21-4.74,.56-7.12,.76-1.13,.1-5.05,.02-6.42-.36-1.53-.43-3.07-1.26-3.61-1.68-3.45-2.67-3.43-7.62-.4-10.68,1.43-1.44,2.92-2.82,4.72-3.81,.45-.25,.45-.36,.05-.69-2.74-2.29-4.38-5.23-4.82-8.78-.49-3.97,.62-7.5,3.23-10.51,.77-.89,1.61-1.66,2.5-2.32C28.24,.91,31.58,.4,33.13,.19c1.54-.21,3.81-.34,6.46,.18,0,0,3.3,.64,6.34,2.43Zm-3.78,9.68c.04-3.9-3.99-6.8-7.78-5.93-1.45,.34-2.56,1.25-3.45,2.42-1.06,1.38-1.55,2.95-1.35,4.72,.17,1.44,.83,2.67,1.64,3.83,1.29,1.83,2.59,3.66,3.87,5.49,.46,.66,.83,.67,1.29,.01,1.33-1.88,2.67-3.76,4-5.65,1.01-1.43,1.8-2.95,1.78-4.9Z"/>
</svg>